<svg width="231" height="222" viewBox="0 0 231 222" fill="none" xmlns="http://www.w3.org/2000/svg">
<g opacity="0.08">
<path opacity="0.08" d="M7.79778 125.17C7.79778 125.17 14.9796 163.926 51.4057 184.927C87.8256 205.929 133.101 200.919 169.903 197.825C206.704 194.732 231.536 169.811 231.001 137.957C230.465 106.104 201.239 101.193 180.728 67.965C160.21 34.7559 159.779 22.8687 124.498 5.89748C89.2226 -11.0799 41.2822 9.97082 20.7768 51.4067C0.271322 92.8426 7.79778 125.17 7.79778 125.17Z" fill="#00B533"/>
<path opacity="0.7" d="M7.79778 125.17C7.79778 125.17 14.9796 163.926 51.4057 184.927C87.8256 205.929 133.101 200.919 169.903 197.825C206.704 194.732 231.536 169.811 231.001 137.957C230.465 106.104 201.239 101.193 180.728 67.965C160.21 34.7559 159.779 22.8687 124.498 5.89748C89.2226 -11.0799 41.2822 9.97082 20.7768 51.4067C0.271322 92.8426 7.79778 125.17 7.79778 125.17Z" fill="#00B533"/>
</g>
<path d="M41.1528 196.358L165.816 148.618" stroke="#2E353A" stroke-width="0.495524" stroke-linecap="round" stroke-linejoin="round"/>
<path d="M45.8056 54.4694C38.2791 58.0066 29.3126 54.7652 25.7802 47.2348C22.2477 39.6982 25.4848 30.7196 33.0051 27.1824C34.9682 26.258 37.1099 25.7712 39.2761 25.7527C31.9712 30.2512 29.688 39.8337 34.1867 47.1485C36.7222 51.265 41.0116 53.9703 45.8056 54.4694Z" fill="#2E353A"/>
<path d="M50.9871 26.5415L50.384 24.9947L48.7716 24.6126L50.0578 23.565L49.9163 21.9073L51.3132 22.8071L52.8456 22.1662L52.421 23.7684L53.5041 25.0255L51.8486 25.1241L50.9871 26.5415Z" fill="#2E353A"/>
<path d="M58.7597 42.1322L57.8919 42.3233L57.5535 43.1429L57.1042 42.3726L56.218 42.311L56.8088 41.6454L56.5996 40.7827L57.4119 41.1401L58.1689 40.6718L58.0827 41.5591L58.7597 42.1322Z" fill="#2E353A"/>
<path d="M30.1188 66.554L29.2511 66.745L28.9126 67.5646L28.4634 66.8005L27.5772 66.7327L28.168 66.0672L27.9588 65.2044L28.7711 65.5618L29.5281 65.0935L29.4419 65.9809L30.1188 66.554Z" fill="#2E353A"/>
<path d="M8.97343 67.5027L7.69953 65.7279L5.51483 65.7711L6.80719 64.0086L6.08716 61.9442L8.16725 62.6283L9.9027 61.3033L9.89655 63.491L11.6874 64.742L9.6073 65.4075L8.97343 67.5027Z" fill="#2E353A"/>
<path d="M101.266 204.228C101.266 206.286 96.2755 207.956 90.1091 207.956C83.9427 207.956 78.9517 206.286 78.9517 204.228C78.9517 202.169 83.9488 200.53 90.1091 200.53C96.2693 200.53 101.266 202.182 101.266 204.228Z" stroke="#2E353A" stroke-width="0.495524" stroke-linecap="round" stroke-linejoin="round"/>
<path d="M78.9517 204.228C78.9517 204.228 79.364 211.813 81.1549 216.503C82.9457 221.193 90.7122 222.801 94.9339 220.921C98.0663 219.529 99.6479 215.277 100.473 211.419" stroke="#2E353A" stroke-width="0.495524" stroke-linecap="round" stroke-linejoin="round"/>
<path d="M96.9583 217.193C97.5306 218.654 99.5922 218.672 100.878 218.524C103.279 218.395 105.18 216.435 105.236 214.026C105.352 212.245 104.872 210.476 103.882 208.997C103.045 207.9 101.746 207.26 100.368 207.247C99.1122 207.241 98.0906 208.252 98.0845 209.509C98.0845 209.651 98.0968 209.792 98.1214 209.934C98.1583 210.199 98.2752 210.445 98.4537 210.649C99.0199 211.265 99.8322 210.908 100.509 211.173C101.137 211.475 101.592 212.054 101.74 212.738C102.005 213.699 102.14 214.587 101.518 215.412C101.069 215.949 100.361 216.195 99.6722 216.066C99.0568 215.985 98.5399 215.449 97.8998 215.449C97.3213 215.449 96.8536 215.918 96.8475 216.491C96.8475 216.522 96.8475 216.552 96.8536 216.583C96.8536 216.793 96.8906 217.002 96.9583 217.193Z" fill="white" stroke="#2E353A" stroke-width="0.495524" stroke-linecap="round" stroke-linejoin="round"/>
<path d="M90.1648 207.783C95.7797 207.783 100.331 206.622 100.331 205.189C100.331 203.756 95.7797 202.595 90.1648 202.595C84.55 202.595 79.9983 203.756 79.9983 205.189C79.9983 206.622 84.55 207.783 90.1648 207.783Z" fill="#2E353A"/>
<path d="M87.2905 198.546C87.0382 197.868 86.9828 197.129 87.1305 196.42C87.4197 195.187 88.4351 194.269 89.4998 193.597C90.6137 193.006 91.6784 192.322 92.6753 191.552C93.6046 190.707 94.2754 189.401 93.9061 188.193C93.6046 187.503 93.2477 186.844 92.8415 186.209C92.2692 185.013 92.4292 183.596 93.26 182.561C94.1461 181.562 95.5924 181.285 96.7801 181.889C97.9371 182.573 98.3617 184.04 97.7586 185.241C97.3647 185.931 96.6447 186.369 96.1893 187.022C95.5677 187.971 95.5677 189.204 96.1893 190.153C96.657 190.837 97.4201 191.33 97.6786 192.125C97.8571 192.957 97.5309 193.813 96.8416 194.306C96.1585 194.781 95.3585 195.052 94.5339 195.089C93.7031 195.113 92.8784 195.218 92.0722 195.415C90.0721 196.038 88.9521 198.164 89.5737 200.167C89.7152 200.616 89.9368 201.042 90.226 201.405C90.6875 201.991 90.2629 201.658 89.5367 201.245C88.4967 200.641 87.7028 199.686 87.2905 198.546Z" fill="#2E353A"/>
<path opacity="0.7" d="M87.297 198.54C87.0446 197.862 86.9893 197.122 87.137 196.414C87.4262 195.181 88.4416 194.263 89.5063 193.591C90.614 193 91.6787 192.316 92.6756 191.545C93.6111 190.701 94.2757 189.395 93.9065 188.187C93.6111 187.497 93.2541 186.831 92.8418 186.203C92.2633 185.007 92.4295 183.584 93.2664 182.555C94.1465 181.55 95.5988 181.273 96.7866 181.883C97.9435 182.567 98.3682 184.033 97.7651 185.235C97.3651 185.925 96.645 186.363 96.1958 187.016C95.5619 187.965 95.5619 189.198 96.1958 190.147C96.6635 190.831 97.4266 191.324 97.6789 192.119C97.8574 192.944 97.5312 193.801 96.8481 194.294C96.165 194.768 95.365 195.046 94.5342 195.083C93.7034 195.107 92.8787 195.212 92.0725 195.403C90.0663 196.032 88.9524 198.17 89.5801 200.179C89.7217 200.623 89.9371 201.036 90.2263 201.399C90.694 201.985 90.2632 201.652 89.5371 201.233C88.497 200.629 87.7093 199.674 87.297 198.54Z" fill="white"/>
<path d="M154.124 140.472V28.0946" stroke="#2E353A" stroke-width="0.520102" stroke-linecap="round" stroke-linejoin="round"/>
<path d="M67.5984 128.147V16.4723" stroke="#2E353A" stroke-width="0.520102" stroke-linecap="round" stroke-linejoin="round"/>
<path d="M2.69763 78.9896H194.336" stroke="#2E353A" stroke-width="0.505732" stroke-linecap="round" stroke-linejoin="round"/>
<path d="M90.8356 56.1826L88.2324 57.9451" stroke="#2E353A" stroke-width="0.260051" stroke-linecap="round" stroke-linejoin="round"/>
<path d="M40.7293 110.837L0.321533 138.309" stroke="#2E353A" stroke-width="0.520102" stroke-linecap="round" stroke-linejoin="round"/>
<path d="M36.3536 106.998L26.5748 113.641" stroke="#2E353A" stroke-width="0.520102" stroke-linecap="round" stroke-linejoin="round"/>
<path d="M194.993 52.5899C206.804 52.5899 216.379 43.0024 216.379 31.1756C216.379 19.3489 206.804 9.76135 194.993 9.76135C183.182 9.76135 173.608 19.3489 173.608 31.1756C173.608 43.0024 183.182 52.5899 194.993 52.5899Z" fill="#2E353A"/>
<path d="M194.981 48.147C204.344 48.147 211.935 40.546 211.935 31.1696C211.935 21.7933 204.344 14.1923 194.981 14.1923C185.617 14.1923 178.026 21.7933 178.026 31.1696C178.026 40.546 185.617 48.147 194.981 48.147Z" fill="white"/>
<path d="M196.408 31.1695C196.414 31.9645 195.774 32.6054 194.98 32.6115C194.186 32.6177 193.546 31.9768 193.54 31.1819C193.534 30.3869 194.174 29.746 194.968 29.7399C194.974 29.7399 194.974 29.7399 194.98 29.7399C195.774 29.7399 196.408 30.3808 196.408 31.1695Z" fill="#2E353A"/>
<path d="M195.189 31.5885V17.6307" stroke="#2E353A" stroke-width="0.563163" stroke-linecap="round" stroke-linejoin="round"/>
<path d="M194.975 30.9538L191.737 20.1204" stroke="#2E353A" stroke-width="0.563163" stroke-linecap="round" stroke-linejoin="round"/>
<path d="M79.9727 181.655L60.6427 105.432C59.7995 102.123 61.4365 98.6784 64.5382 97.2487C81.6835 89.404 110.694 80.9923 133.402 81.3374C137.052 81.3929 140.061 84.2214 140.35 87.8695L145.335 150.849C145.581 153.955 143.772 156.864 140.88 158.01L79.9727 181.655Z" fill="#2E353A"/>
<path opacity="0.5" d="M79.9727 181.655L60.6427 105.432C59.7995 102.123 61.4365 98.6784 64.5382 97.2487C81.6835 89.404 110.694 80.9923 133.402 81.3374C137.052 81.3929 140.061 84.2214 140.35 87.8695L145.335 150.849C145.581 153.955 143.772 156.864 140.88 158.01L79.9727 181.655Z" fill="black"/>
<path d="M129.034 205.657L163.693 190.948C164.635 190.56 165.09 189.481 164.703 188.538C164.567 188.212 164.346 187.928 164.057 187.725L150.407 177.865C149.896 177.501 149.244 177.415 148.659 177.631L113.23 191.071C112.27 191.422 111.778 192.482 112.128 193.444C112.251 193.776 112.467 194.066 112.75 194.282L127.187 205.417C127.717 205.824 128.424 205.916 129.034 205.657Z" fill="#2E353A"/>
<path d="M144.653 181.846C144.653 181.846 155.73 183.436 157.022 189.494C158.315 195.551 133.686 195.773 131.526 191.225C129.366 186.677 140.979 181.846 144.653 181.846Z" fill="white"/>
<path d="M153.287 187.392C153.287 187.392 151.503 178.894 146.444 177.397C141.385 175.899 129.613 177.606 129.613 177.606L105.119 163.199L89.3895 174.045L96.3682 176.879L96.3128 176.966C96.3128 176.966 97.4575 177.403 99.3099 178.075L103.396 179.739L103.581 179.591C109.963 181.803 119.04 184.693 124.351 185.279C124.351 185.279 127.619 188.674 130.967 189.321C130.967 189.321 133.108 189.82 134.32 189.463C135.711 188.939 137.25 188.964 138.628 189.531C140.339 190.245 146.106 192.945 147.503 192.199C148.9 191.453 146.758 189.031 142.838 186.819C142.838 186.819 150.678 189.173 152.321 189.173C153.964 189.173 154.604 188.89 154.531 188.557L153.287 187.392Z" fill="white"/>
<path d="M140.917 185.772C140.917 185.772 152.53 190.085 154.044 189.007C155.558 187.928 149.201 184.385 142.283 182.006" stroke="#2E353A" stroke-width="0.495524" stroke-linecap="round" stroke-linejoin="round"/>
<path d="M145.681 179.812C148.112 180.626 150.284 182.062 151.983 183.978" stroke="#2E353A" stroke-width="0.495524" stroke-linecap="round" stroke-linejoin="round"/>
<path d="M153.034 187.115C153.034 187.115 151.366 180.182 147.692 177.803C144.018 175.425 129.335 177.643 129.335 177.643L102.718 161.67" stroke="#2E353A" stroke-width="0.495524" stroke-linecap="round" stroke-linejoin="round"/>
<path d="M89.8691 174.451C92.5277 175.53 95.9002 176.824 100.153 178.34C115.273 183.75 124.351 185.266 124.351 185.266C124.351 185.266 129.68 190.874 134.942 189.161C138.486 188.002 145.096 193.271 147.471 192.187C149.847 191.102 143.914 186.967 136.566 183.719" stroke="#2E353A" stroke-width="0.495524" stroke-linecap="round" stroke-linejoin="round"/>
<path d="M164.604 148.871L180.34 130.84C180.34 130.84 176.1 122.933 170.826 114.121C165.552 105.309 159.293 95.671 156.629 92.0352C149.207 88.4056 159.706 133.077 159.706 133.077L164.604 148.871Z" fill="#00B533"/>
<path d="M180.667 131.659C173.959 117.042 156.629 91.8135 156.629 91.8135" stroke="#2E353A" stroke-width="0.495524" stroke-linecap="round" stroke-linejoin="round"/>
<path d="M101.051 143.115L114.67 168.591L158.142 151.65L159.804 131.438C162.265 114.306 156.604 91.7704 156.604 91.7704L128.295 85.6758C128.295 85.6758 87.6778 99.6089 87.0624 102.246C86.447 104.884 101.051 143.115 101.051 143.115Z" fill="#00B533"/>
<path d="M101.051 143.115L114.67 168.591L158.142 151.65L159.804 131.438C162.265 114.306 156.604 91.7704 156.604 91.7704L128.295 85.6758C128.295 85.6758 87.6778 99.6089 87.0624 102.246C86.447 104.884 101.051 143.115 101.051 143.115Z" stroke="#2E353A" stroke-width="0.495524" stroke-miterlimit="10"/>
<path opacity="0.2" d="M92.5579 109.703C93.598 111.921 98.712 123.439 100.558 126.341C103.02 105.432 102.164 103.134 104.041 102.037L112.78 96.9344L108.214 94.1429L108.005 93.1938C108.005 93.1938 90.0655 100.022 87.1854 102.351C87.1854 102.351 89.3147 102.813 92.5579 109.703Z" fill="black"/>
<path d="M79.6099 163.199C88.638 164.708 97.8876 162.484 105.248 157.036C105.248 157.036 104.922 137.409 103.02 132.436C100.558 126.046 89.5242 101.088 87.1548 102.351C85.4748 103.245 82.01 130.31 80.3853 148.199C79.7268 155.619 79.3822 161.51 79.6099 163.199Z" fill="#00B533"/>
<path d="M79.6099 163.199C88.638 164.708 97.8876 162.484 105.248 157.036C105.248 157.036 104.922 137.409 103.02 132.436C100.558 126.046 89.5242 101.088 87.1548 102.351C85.4748 103.245 82.01 130.31 80.3853 148.199C79.7268 155.619 79.3822 161.51 79.6099 163.199Z" stroke="#2E353A" stroke-width="0.495524" stroke-miterlimit="10"/>
<path d="M105.487 127.364C107.284 132.639 107.654 138.302 106.546 143.768" stroke="#2E353A" stroke-width="0.495524" stroke-linecap="round" stroke-linejoin="round"/>
<path d="M91.3519 148.088C95.3766 147.645 99.4076 148.816 102.571 151.348" stroke="#2E353A" stroke-width="0.495524" stroke-linecap="round" stroke-linejoin="round"/>
<path d="M96.2998 145.112C99.9369 146.831 102.977 149.598 105.032 153.062" stroke="#2E353A" stroke-width="0.495524" stroke-linecap="round" stroke-linejoin="round"/>
<path d="M157.625 112.827C158.752 118.01 159.589 123.248 160.142 128.523" stroke="#2E353A" stroke-width="0.495524" stroke-linecap="round" stroke-linejoin="round"/>
<path d="M90.183 174.901C90.183 174.901 106.319 168.233 108.03 165.657C109.741 163.081 105.796 154.017 103.851 152.501C101.907 150.985 77.3456 155.674 78.0041 160.654C78.6626 165.633 80.5273 165.097 79.7826 169.281C79.2965 172.023 82.6012 178.149 90.183 174.901Z" fill="white"/>
<path d="M90.417 174.901C90.417 174.901 106.559 168.233 108.264 165.657C109.969 163.081 106.036 154.017 104.091 152.501C102.147 150.985 77.5796 155.674 78.2442 160.654C78.9088 165.633 80.7674 165.097 80.0289 169.281C79.5366 172.023 82.8352 178.149 90.417 174.901Z" stroke="#2E353A" stroke-width="0.495524" stroke-miterlimit="10"/>
<path d="M166.573 152.667C166.419 152.538 166.272 152.408 166.13 152.266C162.031 148.267 164.628 143.22 167.976 139.72C171.053 136.491 176.543 131.573 181.171 131.019C183.257 130.766 184.186 131.924 185.398 133.391C186.094 134.229 186.955 134.925 187.626 135.788C189.725 138.592 189.608 142.474 187.355 145.149C185.435 147.275 182.795 148.058 180.26 149.136C177.183 150.436 174.315 152.587 171.189 153.653C169.589 154.152 167.841 153.776 166.573 152.667Z" fill="white"/>
<path d="M166.573 152.667C166.419 152.538 166.272 152.408 166.13 152.266C162.031 148.267 164.628 143.22 167.976 139.72C171.053 136.491 176.543 131.573 181.171 131.019C183.257 130.766 184.186 131.924 185.398 133.391C186.094 134.229 186.955 134.925 187.626 135.788C189.725 138.592 189.608 142.474 187.355 145.149C185.435 147.275 182.795 148.058 180.26 149.136C177.183 150.436 174.315 152.587 171.189 153.653C169.589 154.152 167.841 153.776 166.573 152.667Z" stroke="#2E353A" stroke-width="0.495524" stroke-miterlimit="10"/>
<path d="M105.137 37.7632C104.817 34.7313 105.74 31.6933 107.697 29.3577C109.66 27.0468 112.214 25.3214 115.082 24.3539" stroke="#2E353A" stroke-width="0.495524" stroke-linecap="round" stroke-linejoin="round"/>
<path d="M133.151 78.3735C132.763 82.9891 132.615 93.8657 132.886 98.4936L115.495 90.3716C116.11 86.1874 116.338 78.583 115.298 74.485L133.145 78.3735" fill="white"/>
<path d="M133.151 78.3735C132.763 82.9891 132.615 93.8657 132.886 98.4936L115.495 90.3716C116.11 86.1874 116.338 78.583 115.298 74.485L133.145 78.3735" stroke="#2E353A" stroke-width="0.495524" stroke-miterlimit="10"/>
<path d="M116.11 77.1407C116.11 77.1407 121.255 86.7048 126.658 86.8835C131.939 87.0499 133.12 79.1743 133.12 79.1743C133.12 79.1743 130.929 83.3401 128.548 83.2477C126.166 83.1552 116.11 77.1407 116.11 77.1407Z" fill="#2E353A"/>
<path d="M138.634 37.7815C138.634 37.7815 116.159 32.9625 109.802 38.8476C103.445 44.7327 105.032 51.2895 105.032 51.2895L105.611 53.1813C105.451 53.1813 105.291 53.1936 105.131 53.2306C103.439 53.6312 101.722 55.6956 102.288 58.6474C102.854 61.5991 106.46 68.082 109.119 67.3918C109.42 67.3178 109.71 67.1946 109.98 67.0405C110.867 69.7088 111.648 71.9211 112.073 72.8208C113.765 76.395 126.646 83.833 129.667 82.8039C132.689 81.7748 140.615 66.3627 141.003 62.6406C141.391 58.9185 138.634 37.7815 138.634 37.7815Z" fill="white"/>
<path d="M126.381 57.9819C126.381 59.0603 125.987 59.9415 125.5 59.9415C125.014 59.9415 124.614 59.0665 124.614 57.9819C124.614 56.8973 125.008 56.0284 125.494 56.0222C125.981 56.0161 126.381 56.9096 126.381 57.9819Z" fill="#2E353A"/>
<path d="M136.142 57.4828C136.142 58.5612 135.748 59.4425 135.262 59.4425C134.776 59.4425 134.382 58.5612 134.376 57.4828C134.369 56.4044 134.769 55.5232 135.262 55.5232C135.754 55.5232 136.142 56.3983 136.142 57.4828Z" fill="#2E353A"/>
<path d="M133.187 71.3605C131.667 71.1756 130.128 71.2804 128.645 71.6625" stroke="#2E353A" stroke-width="0.495524" stroke-linecap="round" stroke-linejoin="round"/>
<path d="M122.584 61.3775C123.366 62.6469 125.169 62.6469 126.24 61.7719C126.689 61.3405 127.077 60.8475 127.378 60.2991" stroke="#2E353A" stroke-width="0.247762" stroke-linecap="round" stroke-linejoin="round"/>
<path d="M133.513 60.3668C134.049 61.1987 134.941 61.741 135.932 61.8211C136.523 61.8643 137.12 61.741 137.643 61.4576" stroke="#2E353A" stroke-width="0.247762" stroke-linecap="round" stroke-linejoin="round"/>
<path d="M121.994 54.2229C124.037 53.81 125.938 52.8856 127.532 51.5422" stroke="#2E353A" stroke-width="0.991049" stroke-linecap="round" stroke-linejoin="round"/>
<path d="M134.141 49.4963C134.954 50.4762 135.969 51.2773 137.12 51.8319" stroke="#2E353A" stroke-width="0.991049" stroke-linecap="round" stroke-linejoin="round"/>
<path d="M130.756 56.4845C130.935 57.7601 131.113 59.0357 131.298 60.3113C131.347 60.866 131.476 61.4082 131.692 61.9197C132.147 62.8379 133.07 63.4233 134.092 63.4542C134.387 63.4172 134.689 63.4603 134.96 63.5774C135.206 63.7499 135.335 64.0396 135.31 64.3354C135.243 64.8345 135.003 65.2905 134.633 65.6295C134.012 66.3135 133.286 66.8989 132.486 67.3611" stroke="#2E353A" stroke-width="0.495524" stroke-linecap="round" stroke-linejoin="round"/>
<path d="M105.119 57.113C107.162 58.82 108.165 61.4698 107.777 64.1012" stroke="#2E353A" stroke-width="0.495524" stroke-linecap="round" stroke-linejoin="round"/>
<path d="M104.756 60.3361C104.885 60.0465 105.15 59.8431 105.457 59.7877C105.759 59.726 106.073 59.726 106.374 59.7877C106.59 59.8185 106.799 59.8924 106.99 59.991C107.23 60.1451 107.408 60.3793 107.494 60.6504" stroke="#2E353A" stroke-width="0.495524" stroke-linecap="round" stroke-linejoin="round"/>
<path d="M110.867 62.8133C110.867 62.8133 112.209 66.6586 108.885 67.5152C106.233 68.2053 102.627 61.7287 102.054 58.7707C101.704 57.2671 102.085 55.6834 103.07 54.5002C103.55 53.9333 104.196 53.5389 104.916 53.3601C106.879 52.8918 108.836 55.2767 110.073 57.2363C110.449 57.8587 110.855 58.4626 111.304 59.0357" stroke="#2E353A" stroke-width="0.495524" stroke-linecap="round" stroke-linejoin="round"/>
<path d="M109.753 67.1578C110.639 69.8384 111.415 72.0446 111.839 72.9443C113.532 76.5246 126.412 83.9565 129.434 82.9273C132.456 81.8982 140.382 66.4861 140.776 62.764C141.17 59.0419 138.425 37.9049 138.425 37.9049C138.425 37.9049 115.95 33.0859 109.593 38.971C103.236 44.8561 104.799 51.4129 104.799 51.4129" stroke="#2E353A" stroke-width="0.495524" stroke-miterlimit="10"/>
<path d="M143.841 27.626C143.841 27.626 147.311 34.8606 142.881 39.7844C138.45 44.7081 128.32 40.6533 128.32 40.6533" stroke="#2E353A" stroke-width="0.495524" stroke-linecap="round" stroke-linejoin="round"/>
<path d="M139.625 24.3292C138.222 24.9023 140.622 27.3673 137.631 28.1253C134.64 28.8832 110.898 17.8464 104.922 37.073C104.922 37.073 94.2818 44.6405 103.076 54.5003C103.556 53.9333 104.202 53.5389 104.922 53.3602C106.83 52.9104 108.725 55.1412 109.969 57.0577C110.522 58.6599 111.39 60.0957 112.713 59.6089C115.126 58.7338 114.313 55.7081 113.329 53.4958C113.015 52.7933 112.676 52.1771 112.424 51.7334C110.91 49.0959 108.67 46.1872 109.692 42.9889C111.735 39.1498 117.944 38.5459 123.846 40.0556C133.619 42.5514 145.053 38.9772 144.875 31.9275C144.696 24.8777 141.028 23.7561 139.625 24.3292Z" fill="#2E353A"/>
<path opacity="0.5" d="M144.104 27.4967C144.092 27.4659 144.074 27.4412 144.049 27.4166C142.855 24.4032 140.646 23.9102 139.624 24.3354C138.221 24.9085 140.621 27.3734 137.63 28.1314C134.639 28.8894 112.017 18.3764 105.383 35.7666C105.58 33.4865 106.466 31.3174 107.924 29.5488C109.844 27.2748 112.349 25.574 115.168 24.6189C115.315 24.5511 115.377 24.3724 115.309 24.2245C115.248 24.0951 115.106 24.0273 114.971 24.0642C112.06 25.0564 109.475 26.8188 107.494 29.1729C105.74 31.2804 104.78 33.9425 104.786 36.6848C100.478 37.6092 97.0994 40.9553 96.127 45.2628C96.0901 45.4231 96.1886 45.5771 96.3486 45.6141H96.4101C96.5455 45.6141 96.6686 45.5217 96.6993 45.3861C97.5978 41.4114 100.669 38.2809 104.626 37.3134C102.927 38.6814 95.2224 45.6634 103.093 54.4941C103.573 53.9272 104.22 53.5328 104.94 53.3541C106.847 52.9042 108.743 55.135 109.986 57.0515C110.54 58.6537 111.408 60.0896 112.731 59.6027C115.143 58.7277 114.331 55.7019 113.346 53.4896C113.032 52.7871 112.694 52.1709 112.442 51.7272C110.928 49.0897 108.688 46.181 109.709 42.9828C111.752 39.1436 117.962 38.5397 123.864 40.0495C125.254 40.4007 126.67 40.6349 128.098 40.752C128.128 40.8259 128.184 40.8814 128.258 40.9184C130.83 41.8982 133.556 42.4405 136.307 42.5206C138.818 42.5206 141.39 41.9043 143.144 39.9694C147.606 34.9717 144.141 27.5706 144.104 27.4967ZM142.658 39.5873C139.366 43.2477 132.682 41.7318 129.802 40.8198C137.316 40.9369 144.246 37.868 144.806 32.7347C145.071 35.2182 144.289 37.7016 142.658 39.5873Z" fill="black"/>
<path d="M126.117 96.9099C126.363 96.6634 133.249 95.4001 133.249 95.4001C133.249 95.4001 132.074 103.553 132.634 106.492L129.784 106.998C129.784 106.998 127.015 101.871 124.83 100.275C122.646 98.6785 126.117 96.9099 126.117 96.9099Z" fill="#2E353A"/>
<path d="M130.202 105.642L130.245 140.244L138.037 146.141L141.347 137.797L131.766 104.89L130.202 105.642Z" fill="#2E353A"/>
<path d="M129.95 91.259L133.76 86.1751C133.95 85.8916 134.332 85.8177 134.615 86.0025C134.658 86.0272 134.695 86.0642 134.726 86.1011L139.594 90.9756C139.809 91.1728 139.852 91.4994 139.698 91.7459L133.852 102.185C133.723 102.499 133.359 102.647 133.046 102.512C132.849 102.425 132.707 102.247 132.676 102.037L129.846 91.8137C129.796 91.6226 129.839 91.4193 129.95 91.259Z" fill="white"/>
<path d="M129.95 91.259L133.76 86.1751C133.95 85.8916 134.332 85.8177 134.615 86.0025C134.658 86.0272 134.695 86.0642 134.726 86.1011L139.594 90.9756C139.809 91.1728 139.852 91.4994 139.698 91.7459L133.852 102.185C133.723 102.499 133.359 102.647 133.046 102.512C132.849 102.425 132.707 102.247 132.676 102.037L129.846 91.8137C129.796 91.6226 129.839 91.4193 129.95 91.259Z" stroke="#2E353A" stroke-width="0.495524" stroke-linecap="round" stroke-linejoin="round"/>
<path d="M114.393 85.3798L129.163 91.2711C129.483 91.382 129.655 91.7333 129.544 92.0537C129.538 92.066 129.538 92.0722 129.532 92.0845L125.741 102.819C125.642 103.146 125.304 103.331 124.978 103.238C124.929 103.226 124.879 103.201 124.83 103.171L108.214 94.1428C107.906 93.9949 107.777 93.6313 107.925 93.3232C107.949 93.28 107.974 93.2369 108.005 93.1937L113.648 85.5955C113.814 85.3614 114.128 85.2689 114.393 85.3798Z" fill="white"/>
<path d="M114.393 85.3798L129.163 91.2711C129.483 91.382 129.655 91.7333 129.544 92.0537C129.538 92.066 129.538 92.0722 129.532 92.0845L125.741 102.819C125.642 103.146 125.304 103.331 124.978 103.238C124.929 103.226 124.879 103.201 124.83 103.171L108.214 94.1428C107.906 93.9949 107.777 93.6313 107.925 93.3232C107.949 93.28 107.974 93.2369 108.005 93.1937L113.648 85.5955C113.814 85.3614 114.128 85.2689 114.393 85.3798Z" stroke="#2E353A" stroke-width="0.495524" stroke-linecap="round" stroke-linejoin="round"/>
<path d="M163.988 147.503L159.619 132.954" stroke="#2E353A" stroke-width="0.495524" stroke-miterlimit="10"/>
<path d="M172.968 152.495L142.813 165.177C141.877 165.583 141.446 166.668 141.853 167.605C141.994 167.931 142.222 168.209 142.511 168.406L165.792 183.904L180.937 168.763L172.968 152.495Z" fill="white" stroke="#2E353A" stroke-width="0.495524" stroke-miterlimit="10"/>
<path d="M160.419 165.824L156.795 167.247L158.739 168.622L162.37 167.198L160.419 165.824ZM160.419 165.824L156.795 167.247L158.739 168.622L162.37 167.198L160.419 165.824ZM160.419 165.824L156.795 167.247L158.739 168.622L162.37 167.198L160.419 165.824ZM162.881 167.568L159.25 168.985L161.361 170.477L164.998 169.053L162.881 167.568ZM162.881 167.568L159.25 168.985L161.361 170.477L164.998 169.053L162.881 167.568ZM162.881 167.568L159.25 168.985L161.361 170.477L164.998 169.053L162.881 167.568ZM162.881 167.568L159.25 168.985L161.361 170.477L164.998 169.053L162.881 167.568ZM162.881 167.568L159.25 168.985L161.361 170.477L164.998 169.053L162.881 167.568ZM162.881 167.568L159.25 168.985L161.361 170.477L164.998 169.053L162.881 167.568ZM162.881 167.568L159.25 168.985L161.361 170.477L164.998 169.053L162.881 167.568ZM154.745 170.754L156.893 172.227L160.764 170.711L158.653 169.226L154.745 170.754ZM162.881 167.586L159.25 169.004L161.361 170.495L164.998 169.072L162.881 167.586ZM162.881 167.586L159.25 169.004L161.361 170.495L164.998 169.072L162.881 167.586ZM162.881 167.586L159.25 169.004L161.361 170.495L164.998 169.072L162.881 167.586ZM162.881 167.586L159.25 169.004L161.361 170.495L164.998 169.072L162.881 167.586ZM162.881 167.586L159.25 169.004L161.361 170.495L164.998 169.072L162.881 167.586ZM162.881 167.586L159.25 169.004L161.361 170.495L164.998 169.072L162.881 167.586ZM165.515 169.435L161.884 170.859L164.303 172.559L167.934 171.136L165.515 169.435ZM166.13 169.201L168.555 170.908L168.727 170.834L169.404 167.925L166.13 169.201ZM165.613 168.837L164.998 169.072L165.515 169.435L166.13 169.201L165.613 168.837ZM165.54 169.454L161.909 170.877L164.327 172.578L167.958 171.154L165.54 169.454ZM165.54 169.454L161.909 170.877L164.327 172.578L167.958 171.154L165.54 169.454ZM165.54 169.454L161.909 170.877L164.327 172.578L167.958 171.154L165.54 169.454ZM169.084 167.494L169.454 167.753L169.558 167.315L169.084 167.494ZM165.613 168.856L164.998 169.09L165.515 169.454L166.13 169.219L165.613 168.856ZM166.973 166.009L163.496 167.352L165.607 168.837L169.078 167.476L166.973 166.009ZM165.613 168.856L164.998 169.09L165.515 169.454L166.13 169.219L165.613 168.856ZM165.54 169.472L161.909 170.896L164.327 172.596L167.958 171.173L165.54 169.472ZM165.613 168.856L164.998 169.09L165.515 169.454L166.13 169.219L165.613 168.856ZM165.54 169.472L161.909 170.896L164.327 172.596L167.958 171.173L165.54 169.472ZM165.54 169.472L161.909 170.896L164.327 172.596L167.958 171.173L165.54 169.472ZM166.155 169.238L168.58 170.945L167.964 171.173L168.487 171.537L164.85 172.966L164.333 172.596L163.718 172.831L164.241 173.194L160.419 174.649L162.266 175.93L166.038 174.451L166.567 174.821L162.819 176.3L165.281 177.995L166.777 179.018L167.183 177.249L167.583 175.542L167.712 174.994L167.866 174.316L168.014 173.7L168.506 171.58V171.481L168.617 171.025L168.654 170.852L169.33 167.944L166.155 169.238ZM165.54 169.472L161.909 170.896L164.327 172.596L167.958 171.173L165.54 169.472ZM165.613 168.856L164.998 169.09L165.515 169.454L166.13 169.219L165.613 168.856ZM165.54 169.472L161.909 170.896L164.327 172.596L167.958 171.173L165.54 169.472ZM165.613 168.856L164.998 169.09L165.515 169.454L166.13 169.219L165.613 168.856ZM165.54 169.472L161.909 170.896L164.327 172.596L167.958 171.173L165.54 169.472ZM165.613 168.856L164.998 169.09L165.515 169.454L166.13 169.219L165.613 168.856ZM165.54 169.472L161.909 170.896L164.327 172.596L167.958 171.173L165.54 169.472ZM165.613 168.856L164.998 169.09L165.515 169.454L166.13 169.219L165.613 168.856ZM167.564 165.775L169.577 167.192L170.143 164.764L167.564 165.775ZM164.487 164.265L161.01 165.627L160.493 165.257L163.964 163.901L164.487 164.265L165.103 164.031L164.58 163.667L168.272 162.231L166.426 160.919L162.764 162.367L162.149 162.595L158.647 163.975L158.032 164.209L154.413 165.639L153.798 165.873L149.81 167.445L151.656 168.708L155.613 167.155L156.136 167.525L152.185 169.072L154.167 170.427L158.087 168.899L158.604 169.263L159.219 169.028L158.702 168.665L162.333 167.241L162.85 167.611L163.466 167.377L162.943 167.007L166.413 165.645L164.487 164.265ZM156.795 167.278L156.265 166.915L159.902 165.491L160.419 165.855L156.795 167.278ZM168.826 161.997L168.21 162.231L168.734 162.595L169.349 162.361L168.826 161.997ZM169.343 162.361L170.5 163.174L170.814 161.788L169.343 162.361ZM166.961 160.685L168.807 161.997L170.943 161.159L171.472 158.897L166.961 160.685ZM165.595 168.85L164.98 169.084L165.496 169.447L166.112 169.213L165.595 168.85ZM166.432 165.633L164.487 164.265L161.01 165.627L160.395 165.855L162.346 167.229L162.863 167.599L163.478 167.365L162.955 166.995L166.432 165.633ZM166.955 166.003L163.496 167.352L165.607 168.837L169.078 167.476L166.955 166.003ZM170.364 163.729L168.758 162.595L165.066 164.031L167.01 165.405L166.426 165.633L166.943 166.003L167.558 165.775L167.041 165.405L170.284 164.135L170.364 163.729ZM165.595 168.85L169.066 167.488L166.955 166.003L163.496 167.352L165.595 168.85ZM166.432 165.633L164.487 164.265L161.01 165.627L160.395 165.855L162.346 167.229L162.863 167.599L163.478 167.365L162.955 166.995L166.432 165.633ZM165.521 169.447L161.89 170.871L164.309 172.572L167.94 171.148L165.521 169.447ZM165.521 169.447L161.89 170.871L164.309 172.572L167.94 171.148L165.521 169.447ZM162.887 167.599L159.256 169.016L161.367 170.507L165.004 169.084L162.887 167.599ZM161.306 171.099L157.422 172.603L159.884 174.285L163.699 172.794L161.306 171.099ZM161.367 170.483L160.752 170.711L161.281 171.074L161.866 170.846L161.367 170.483ZM165.521 169.423L161.89 170.846L164.309 172.547L167.94 171.124L165.521 169.423ZM166.137 169.189L168.561 170.896L168.734 170.822L169.41 167.913L166.137 169.189ZM165.62 168.825L165.004 169.059L165.521 169.423L166.137 169.189L165.62 168.825ZM160.419 165.824L156.795 167.247L158.739 168.622L162.37 167.198L160.419 165.824ZM160.419 165.824L156.795 167.247L158.739 168.622L162.37 167.198L160.419 165.824ZM160.419 165.824L156.795 167.247L158.739 168.622L162.37 167.198L160.419 165.824Z" fill="#2E353A"/>
<path d="M165.817 183.904L174.106 147.62C174.42 146.252 175.374 145.112 176.666 144.57L221.197 125.768C221.806 125.515 222.502 125.799 222.76 126.409C222.865 126.662 222.883 126.945 222.803 127.21L212.114 163.322L165.817 183.904Z" fill="#00B533" stroke="#2E353A" stroke-width="0.495524" stroke-miterlimit="10"/>
<path d="M199.263 150.467C200.537 151.2 200.808 153.117 199.879 154.744C198.95 156.371 197.146 157.092 195.872 156.358C194.599 155.625 194.328 153.708 195.257 152.081C196.186 150.455 197.99 149.727 199.263 150.467Z" fill="#2E353A"/>
</svg>
