<svg width="223" height="226" viewBox="0 0 223 226" fill="none" xmlns="http://www.w3.org/2000/svg">
<g opacity="0.08">
<path opacity="0.08" d="M1.33848 127.666C1.33848 127.666 8.47052 166.08 44.6441 186.896C80.8115 207.712 125.773 202.747 162.32 199.68C198.866 196.614 223.526 171.913 222.994 140.34C222.462 108.767 193.439 103.899 173.07 70.9641C152.7 38.0414 152.266 26.265 117.236 9.43713C82.1988 -7.3846 34.5908 13.4746 14.2275 54.5455C-6.13581 95.6164 1.33848 127.666 1.33848 127.666Z" fill="#00B533"/>
<path opacity="0.7" d="M1.33848 127.666C1.33848 127.666 8.47052 166.08 44.6441 186.896C80.8115 207.712 125.773 202.747 162.32 199.68C198.866 196.614 223.526 171.913 222.994 140.34C222.462 108.767 193.439 103.899 173.07 70.9641C152.7 38.0414 152.266 26.265 117.236 9.43713C82.1988 -7.3846 34.5908 13.4746 14.2275 54.5455C-6.13581 95.6164 1.33848 127.666 1.33848 127.666Z" fill="#00B533"/>
</g>
<path d="M65.0075 0.30542H162.821C167.722 0.30542 171.695 4.27569 171.695 9.17439V216.826C171.695 221.724 167.722 225.695 162.821 225.695H65.0075C60.1061 225.695 56.1337 221.724 56.1337 216.826V9.17439C56.1337 4.27569 60.1061 0.30542 65.0075 0.30542Z" fill="#2E353A"/>
<path d="M65.0075 0.30542H162.821C167.722 0.30542 171.695 4.27569 171.695 9.17439V216.826C171.695 221.724 167.722 225.695 162.821 225.695H65.0075C60.1061 225.695 56.1337 221.724 56.1337 216.826V9.17439C56.1337 4.27569 60.1061 0.30542 65.0075 0.30542Z" stroke="#2E353A" stroke-linecap="round" stroke-linejoin="round"/>
<path d="M166.549 15.6123H61.2671V212.318H166.549V15.6123Z" fill="white" stroke="#2E353A" stroke-linecap="round" stroke-linejoin="round"/>
<path d="M162.967 17.6525H154.24V22.4351H162.967V17.6525Z" stroke="#2E353A" stroke-width="0.8211" stroke-linecap="round" stroke-linejoin="round"/>
<path d="M161.048 17.6525H154.24V22.4351H161.048V17.6525Z" fill="#2E353A" stroke="#2E353A" stroke-width="0.7251" stroke-linecap="round" stroke-linejoin="round"/>
<path d="M164.177 18.9901H162.949V21.0974H164.177V18.9901Z" fill="#2E353A" stroke="#2E353A" stroke-width="0.7251" stroke-linecap="round" stroke-linejoin="round"/>
<path d="M65.2396 19.1367H63.6384V21.8793H65.2396V19.1367Z" fill="#2E353A" stroke="#2E353A" stroke-width="0.8831" stroke-linecap="round" stroke-linejoin="round"/>
<path d="M67.7574 18.1716H66.1562V21.8793H67.7574V18.1716Z" fill="#2E353A" stroke="#2E353A" stroke-width="0.8831" stroke-linecap="round" stroke-linejoin="round"/>
<path d="M70.2695 17.0355H68.6683V21.8793H70.2695V17.0355Z" fill="#2E353A" stroke="#2E353A" stroke-width="0.8831" stroke-linecap="round" stroke-linejoin="round"/>
<path d="M164.062 25.0981H62.9663V32.6966H164.062V25.0981Z" fill="#00B533"/>
<path d="M158.011 133.242H126.941C124.82 133.242 123.103 134.959 123.103 137.078V140.89L115.427 144.341L123.103 146.399V148.781C123.103 150.901 124.82 152.617 126.941 152.617H158.042C160.163 152.617 161.88 150.901 161.88 148.781V137.084C161.886 134.965 160.169 133.248 158.048 133.242C158.036 133.242 158.024 133.242 158.011 133.242Z" fill="white" stroke="#2E353A" stroke-miterlimit="10"/>
<path d="M137.037 143.241C137.037 144.133 136.31 144.86 135.417 144.86C134.525 144.86 133.798 144.133 133.798 143.241C133.798 142.35 134.525 141.623 135.417 141.623H135.423C136.316 141.623 137.037 142.343 137.037 143.235V143.241Z" fill="#2E353A"/>
<path d="M144.102 143.241C144.095 144.133 143.374 144.854 142.482 144.848C141.59 144.842 140.869 144.121 140.875 143.229C140.881 142.343 141.602 141.623 142.488 141.623C143.38 141.623 144.102 142.343 144.102 143.235V143.241Z" fill="#2E353A"/>
<path d="M151.173 143.241C151.173 144.133 150.445 144.86 149.553 144.86C148.661 144.86 147.933 144.133 147.933 143.241C147.933 142.35 148.661 141.623 149.553 141.623C150.445 141.623 151.173 142.35 151.173 143.241Z" fill="#2E353A"/>
<path d="M158.011 41.6207H126.941C124.826 41.6207 123.109 43.3371 123.103 45.4505V49.2681L115.427 52.7192L123.103 54.7776V57.1598C123.103 59.2793 124.82 60.9956 126.941 60.9956H158.042C160.163 60.9956 161.88 59.2793 161.88 57.1598V45.4627C161.886 43.3432 160.169 41.6268 158.048 41.6207C158.036 41.6207 158.024 41.6207 158.011 41.6207Z" fill="white" stroke="#2E353A" stroke-miterlimit="10"/>
<path d="M137.037 51.6197C137.037 52.5115 136.31 53.2384 135.417 53.2384C134.525 53.2384 133.798 52.5115 133.798 51.6197C133.798 50.728 134.525 50.0011 135.417 50.0011H135.423C136.316 50.0011 137.037 50.7219 137.037 51.6136V51.6197Z" fill="#2E353A"/>
<path d="M144.102 51.6198C144.095 52.5115 143.374 53.2323 142.482 53.2262C141.59 53.2201 140.869 52.4993 140.875 51.6075C140.881 50.7219 141.602 50.0011 142.488 50.0011C143.38 50.0011 144.102 50.7219 144.102 51.6136V51.6198Z" fill="#2E353A"/>
<path d="M151.173 51.6197C151.173 52.5115 150.445 53.2384 149.553 53.2384C148.661 53.2384 147.933 52.5115 147.933 51.6197C147.933 50.728 148.661 50.0011 149.553 50.0011C150.445 50.0011 151.173 50.728 151.173 51.6197Z" fill="#2E353A"/>
<path d="M70.3428 182.895H101.444C103.565 182.895 105.282 184.612 105.282 186.731V190.543L112.958 193.994L105.282 196.052V198.434C105.282 200.554 103.565 202.27 101.444 202.27H70.3428C68.2221 202.27 66.5048 200.554 66.5048 198.434V186.755C66.4926 184.636 68.1977 182.907 70.3184 182.895C70.3245 182.895 70.3306 182.895 70.3428 182.895Z" fill="white" stroke="#2E353A" stroke-miterlimit="10"/>
<path d="M91.3174 192.919C91.3113 193.81 92.0386 194.537 92.9308 194.543C93.8231 194.549 94.5504 193.823 94.5565 192.931C94.5626 192.039 93.8353 191.312 92.9431 191.306C92.937 191.306 92.937 191.306 92.9308 191.306C92.0386 191.306 91.3174 192.027 91.3174 192.919Z" fill="#2E353A"/>
<path d="M84.2524 192.919C84.2524 193.81 84.9736 194.531 85.8659 194.531C86.7581 194.531 87.4793 193.81 87.4793 192.919C87.4793 192.027 86.7581 191.306 85.8659 191.306C84.9736 191.306 84.2524 192.027 84.2524 192.919Z" fill="#2E353A"/>
<path d="M77.1817 192.919C77.1756 193.81 77.9028 194.537 78.7951 194.543C79.6874 194.549 80.4146 193.823 80.4207 192.931C80.4269 192.039 79.6996 191.312 78.8073 191.306H78.8012C77.9089 191.306 77.1817 192.027 77.1817 192.919Z" fill="#2E353A"/>
<path d="M70.3429 90.0519H101.444C103.565 90.0519 105.282 91.7683 105.282 93.8878V97.6992L112.958 101.15L105.282 103.209V105.591C105.282 107.71 103.565 109.427 101.444 109.427H70.3429C68.2222 109.427 66.5049 107.71 66.5049 105.591V93.8817C66.5049 91.7683 68.2222 90.0519 70.3429 90.0519Z" fill="white" stroke="#2E353A" stroke-miterlimit="10"/>
<path d="M91.317 100.045C91.317 100.937 92.0443 101.663 92.9366 101.663C93.8288 101.663 94.5561 100.937 94.5561 100.045C94.5561 99.153 93.8288 98.4261 92.9366 98.4261H92.9304C92.0382 98.4261 91.317 99.1469 91.317 100.039C91.317 100.039 91.317 100.045 91.317 100.045Z" fill="#2E353A"/>
<path d="M84.2524 100.045C84.2586 100.937 84.9797 101.657 85.872 101.651C86.7642 101.645 87.4854 100.924 87.4793 100.033C87.4732 99.1469 86.752 98.4261 85.8659 98.4261C84.9736 98.4261 84.2524 99.1469 84.2524 100.039C84.2524 100.039 84.2524 100.045 84.2524 100.045Z" fill="#2E353A"/>
<path d="M77.1816 100.045C77.1816 100.937 77.9089 101.663 78.8012 101.663C79.6934 101.663 80.4207 100.937 80.4207 100.045C80.4207 99.153 79.6934 98.4261 78.8012 98.4261C77.9028 98.4261 77.1816 99.153 77.1816 100.045Z" fill="#2E353A"/>
<path d="M115.61 87.5415C114.889 84.3591 112.102 72.3995 110.36 70.0539C108.35 67.3419 96.7134 61.0445 95.0511 59.9084C93.3888 58.7723 90.8526 57.8988 90.0642 57.8988C90.0642 57.8988 83.6778 60.0855 77.383 61.7469C71.0882 63.4083 67.6047 64.5444 66.8836 66.6334C66.2724 68.4658 63.4795 83.8705 62.8256 87.5292L115.61 87.5415Z" fill="#00B533"/>
<path d="M77.4381 86.4482C77.1753 81.8854 76.9126 77.3226 76.662 72.766" stroke="#2E353A" stroke-linecap="round" stroke-linejoin="round"/>
<path d="M94.7885 71.8864C97.7647 71.4527 99.427 66.0287 99.8671 63.7565C99.9282 63.4266 99.9893 63.1457 100.044 62.8708C97.6731 61.472 95.6685 60.3359 95.0513 59.9084C93.3889 58.7723 90.8527 57.8988 90.0643 57.8988C90.0643 57.8988 87.7359 58.699 84.5029 59.6946C84.9368 60.6841 86.043 63.1273 87.7053 66.383C89.8932 70.6648 91.8183 72.3384 94.7885 71.8864Z" fill="white" stroke="#2E353A" stroke-linecap="round" stroke-linejoin="round"/>
<path d="M88.1392 49.9398C88.1392 49.9398 87.2653 58.9493 87.1798 59.4746C87.0942 59.9999 88.3165 63.4937 90.4188 66.731C92.5211 69.9683 95.308 69.7057 96.7136 66.9021C97.7648 64.5627 98.6142 62.1316 99.2498 59.6456C96.4936 59.0531 94.1529 57.2635 92.8634 54.7591C90.7672 50.5568 89.0132 48.7182 88.1392 49.9398Z" fill="#AFAFAF" stroke="#2E353A" stroke-linecap="round" stroke-linejoin="round"/>
<path d="M94.1772 28.5188C94.1772 28.5188 88.5791 30.1802 86.5685 34.5536C84.9306 38.1085 85.8657 43.6486 86.5685 45.481C87.2713 47.3134 87.528 50.905 88.8419 54.1423C90.1559 57.3796 93.6516 61.472 96.6279 62.0828C99.6041 62.6936 105.465 57.9721 107.017 55.7915C108.57 53.6109 108.068 49.8422 108.24 49.2314C108.411 48.6206 110.684 44.2472 110.427 38.8476C110.171 33.448 102.666 27.0345 94.1772 28.5188Z" fill="#AFAFAF" stroke="#2E353A" stroke-linecap="round" stroke-linejoin="round"/>
<path d="M104.94 48.6327C104.94 48.6327 105.728 53.7024 104.499 54.2277C103.271 54.753 100.912 53.9651 100.564 53.2626" stroke="#2E353A" stroke-linecap="round" stroke-linejoin="round"/>
<path d="M99.867 55.9746C98.5102 55.3394 97.3368 54.3804 96.4507 53.1771C96.4507 53.1771 94.5256 56.0601 96.6279 56.842C97.7769 57.3306 99.1153 56.9703 99.867 55.9746Z" fill="#2E353A" stroke="#2E353A" stroke-linecap="round" stroke-linejoin="round"/>
<path d="M100.888 48.4739C100.674 49.1642 100.221 49.6406 99.8731 49.5368C99.5247 49.4329 99.4208 48.7855 99.6286 48.0891C99.8364 47.3928 100.295 46.9225 100.637 47.0263C100.979 47.1302 101.095 47.7776 100.888 48.4739Z" fill="#2E353A"/>
<path d="M107.011 49.433C106.797 50.1293 106.345 50.6058 105.997 50.4958C105.649 50.3859 105.545 49.7445 105.752 49.0543C105.96 48.3641 106.419 47.8815 106.767 47.9854C107.115 48.0892 107.219 48.7428 107.011 49.433Z" fill="#2E353A"/>
<path d="M102.666 45.3588C102.52 45.3588 102.379 45.3039 102.275 45.2061C100.643 43.6425 98.816 45.084 98.7365 45.1451C98.4982 45.3405 98.1437 45.3039 97.9482 45.0656C97.7526 44.8274 97.7893 44.4732 98.0276 44.2777C99.4882 43.0317 101.658 43.0805 103.057 44.3938C103.277 44.6137 103.277 44.974 103.057 45.1939C102.953 45.2916 102.813 45.3588 102.666 45.3588Z" fill="#2E353A"/>
<path d="M109.138 47.2951C108.949 47.2951 108.765 47.1974 108.662 47.0386C108.435 46.5866 108.02 46.2629 107.531 46.1468C107.109 46.1285 106.694 46.269 106.364 46.5377C106.131 46.7454 105.777 46.7271 105.569 46.495C105.361 46.2629 105.38 45.9086 105.612 45.7009C106.18 45.2061 106.932 44.9618 107.684 45.029C108.509 45.1756 109.218 45.6887 109.615 46.4278C109.786 46.6904 109.707 47.0386 109.45 47.2035C109.352 47.2646 109.248 47.2951 109.138 47.2951Z" fill="#2E353A"/>
<path d="M86.7152 45.9269C86.7518 46.0368 86.7824 46.1468 86.813 46.2628V46.3361C86.8496 46.4583 86.8802 46.5866 86.9107 46.7148V46.7515C86.9107 46.8981 86.978 47.0447 87.0085 47.1974L89.7709 46.5866C89.7709 46.5866 92.3071 47.1119 92.6616 46.2384C93.0161 45.365 91.3476 44.0517 92.5699 42.7446C93.7922 41.4374 97.2085 42.3048 97.5569 40.6434C97.9052 38.982 98.7791 33.0388 105.868 34.8712C107.311 35.3416 108.698 35.9768 110 36.7647C108.276 31.9271 101.578 27.1872 94.1467 28.4883C94.1467 28.4883 88.5486 30.1497 86.5379 34.5231C84.9001 38.078 85.8351 43.618 86.5379 45.4505C86.5807 45.5665 86.6235 45.6948 86.6663 45.8231L86.7152 45.9269Z" fill="#2E353A" stroke="#2E353A" stroke-linecap="round" stroke-linejoin="round"/>
<path d="M91.0298 48.1075C91.0298 48.1075 90.2414 44.6992 88.1391 44.3449C86.0368 43.9907 85.2545 46.5316 85.6945 48.8038C86.1346 51.0761 88.4019 53.1772 90.4187 52.5664" fill="#AFAFAF"/>
<path d="M91.0298 48.1075C91.0298 48.1075 90.2414 44.6992 88.1391 44.3449C86.0368 43.9907 85.2545 46.5316 85.6945 48.8038C86.1346 51.0761 88.4019 53.1772 90.4187 52.5664" stroke="#2E353A" stroke-linecap="round" stroke-linejoin="round"/>
<path d="M97.9601 87.5414C99.5551 85.8067 103.265 81.7815 103.54 81.5066C103.815 81.2317 104.414 81.1584 106.424 80.6331C108.435 80.1078 111.76 78.9717 112.285 78.5319C113.074 78.0311 113.783 77.4142 114.388 76.6995C114.815 75.9971 115.194 75.2641 115.524 74.5128C115.787 74.073 117.883 73.114 118.409 72.6804C118.934 72.2467 119.46 71.3732 119.283 70.9335C119.106 70.4937 116.05 71.3732 113.251 71.984C111.754 72.3322 110.232 72.5643 108.698 72.6804C108.698 72.6804 110.275 70.4082 111.234 69.3576C112.194 68.307 111.845 66.0348 111.149 66.9143C110.452 67.7939 105.99 72.3383 105.037 72.6865C104.084 73.0346 101.89 76.2719 100.399 77.7623C99.1762 78.9839 89.239 85.4158 85.9144 87.5353L97.9601 87.5414Z" fill="#AFAFAF" stroke="#2E353A" stroke-linecap="round" stroke-linejoin="round"/>
<path d="M115.525 74.5128L112.548 75.5634" stroke="#2E353A" stroke-linecap="round" stroke-linejoin="round"/>
<path d="M164.795 87.5414H64.5493" stroke="#2E353A" stroke-linecap="round" stroke-linejoin="round"/>
<path d="M164.556 132.057C164.251 129.73 162.949 120.611 161.03 116.421C159.166 112.298 155.621 109.17 151.295 107.833C147.78 106.77 143.197 105.872 140.905 106.196C140.905 106.196 133.296 108.816 130.027 109.549C126.757 110.282 123.365 112.572 121.972 114.539C120.75 116.286 114.345 129.229 112.958 132.057H164.556Z" fill="white" stroke="#2E353A" stroke-linecap="round" stroke-linejoin="round"/>
<path d="M164.557 132.057C164.251 129.73 162.949 120.611 161.03 116.421C159.166 112.298 155.622 109.17 151.295 107.833C147.781 106.77 143.197 105.872 140.905 106.196C140.905 106.196 135.692 107.991 132.038 109.024C130.895 110.807 128.328 114.765 125.926 118.137C122.87 122.413 121.648 128.594 123.304 132.057H164.557Z" fill="#00B533"/>
<path d="M135.998 101.456C136.743 104.308 137.024 107.265 136.817 110.209C136.487 115.199 133.871 118.387 134.855 120.922C135.839 123.457 139.744 124.434 143.197 121.741C146.65 119.047 147.286 112.42 147.371 109.476C147.457 106.532 148.844 97.3816 148.844 97.3816C148.844 97.3816 145.177 101.712 140.899 101.877C136.621 102.042 135.998 101.456 135.998 101.456Z" fill="white" stroke="#2E353A" stroke-linecap="round" stroke-linejoin="round"/>
<path d="M136.896 78.0738C136.896 78.0738 131.396 79.0511 128.884 83.8765C126.439 88.5003 127.601 96.276 130.015 100.881C133.07 106.696 132.887 108.688 132.918 113.825C132.979 114.527 132.74 115.223 132.27 115.743C131.011 116.964 130.846 115.132 130.516 116.17C130.186 117.208 133.571 119.505 137.061 116.469C139.322 114.496 139.842 108.981 138.778 105.786C137.715 102.592 132.398 95.9767 133.547 90.8275C134.696 85.6784 138.699 81.4272 139.047 79.4603C139.396 77.4935 136.896 78.0738 136.896 78.0738Z" fill="#2E353A"/>
<path d="M137.128 81.0669C137.128 81.0669 127.619 86.7658 129.104 95.5859C130.589 104.406 140.105 106.984 139.206 116.072" stroke="#636363" stroke-linecap="round" stroke-linejoin="round"/>
<path d="M136.896 78.0738C136.896 78.0738 131.396 79.0511 128.884 83.8765C126.439 88.5003 127.601 96.276 130.015 100.881C133.07 106.696 132.887 108.688 132.918 113.825C132.979 114.527 132.74 115.223 132.27 115.743C131.011 116.964 130.846 115.132 130.516 116.17C130.186 117.208 133.571 119.505 137.061 116.469C139.322 114.496 139.842 108.981 138.778 105.786C137.715 102.592 132.398 95.9767 133.547 90.8275C134.696 85.6784 138.699 81.4272 139.047 79.4603C139.396 77.4935 136.896 78.0738 136.896 78.0738Z" stroke="#2E353A" stroke-linecap="round" stroke-linejoin="round"/>
<path d="M152.126 132.057H164.556V131.941V131.85V131.715V131.587V131.532V131.41V131.373V131.214V131.05V131.007V130.86V130.793C164.556 130.738 164.556 130.683 164.556 130.628V130.585C164.556 130.524 164.556 130.463 164.556 130.402V130.359C164.556 130.298 164.556 130.243 164.556 130.188V130.109C164.556 130.054 164.556 129.999 164.556 129.938V129.877L164.52 129.657L164.483 129.437V129.388L164.446 129.15C164.446 129.058 164.416 128.967 164.404 128.875C164.361 128.594 164.312 128.301 164.263 128.002C164.263 127.91 164.263 127.818 164.214 127.727V127.696C164.214 127.605 164.184 127.513 164.165 127.421V127.379C164.165 127.293 164.135 127.208 164.116 127.116V127.049C164.116 126.969 164.116 126.89 164.074 126.81V126.713L164.037 126.499V126.389L164 126.181V126.078C164 126.004 163.97 125.931 163.958 125.858V125.754C163.958 125.68 163.927 125.607 163.915 125.534V125.424C163.915 125.351 163.915 125.283 163.872 125.21V125.1C163.872 125.027 163.872 124.954 163.829 124.88V124.764C163.829 124.697 163.799 124.624 163.786 124.55V124.434C163.786 124.361 163.756 124.294 163.738 124.221V124.105C163.738 124.031 163.738 123.958 163.689 123.885C163.689 123.848 163.689 123.811 163.689 123.775C163.689 123.701 163.658 123.622 163.646 123.549V123.439L162.998 123.036V122.944C162.998 122.859 162.961 122.767 162.937 122.675V122.614L162.864 122.297C162.815 122.077 162.76 121.857 162.705 121.637V121.588C162.705 121.496 162.662 121.405 162.644 121.313V121.215L162.589 120.996C162.576 120.959 162.564 120.916 162.558 120.88L162.503 120.672C162.503 120.635 162.503 120.592 162.472 120.556C162.442 120.519 162.442 120.428 162.424 120.36L162.387 120.232C162.387 120.171 162.356 120.11 162.338 120.049L162.301 119.921L162.252 119.743L162.216 119.609C162.216 119.554 162.185 119.499 162.167 119.438L162.13 119.31C162.112 119.255 162.094 119.2 162.081 119.145C162.081 119.096 162.051 119.053 162.039 119.01C162.026 118.968 162.039 118.9 161.99 118.852C161.941 118.803 161.99 118.766 161.947 118.717C161.935 118.668 161.916 118.613 161.898 118.565C161.886 118.522 161.874 118.479 161.855 118.436C161.843 118.381 161.825 118.332 161.806 118.277C161.806 118.241 161.806 118.198 161.764 118.155C161.721 118.113 161.733 118.051 161.715 118.003C161.696 117.954 161.684 117.923 161.672 117.88L161.617 117.734C161.605 117.697 161.592 117.654 161.574 117.618C161.562 117.569 161.543 117.52 161.525 117.471C161.507 117.435 161.495 117.398 161.482 117.361L161.427 117.215C161.427 117.178 161.427 117.141 161.385 117.111L161.323 116.964L161.287 116.866C161.287 116.812 161.244 116.763 161.22 116.714C161.207 116.689 161.195 116.659 161.189 116.628L161.085 116.408C159.307 112.518 156.031 109.506 151.997 108.059C151.454 109.958 150.085 115.272 150.415 119.664C150.708 123.842 151.674 129.535 152.126 132.057Z" fill="white" stroke="#2E353A" stroke-linecap="round" stroke-linejoin="round"/>
<path d="M137.636 78.3976C137.636 78.3976 134.525 80.7675 133.547 83.3879C132.569 86.0083 131.744 92.6233 131.909 95.2437C132.074 97.8641 135.424 102.439 136.799 103.581C138.174 104.724 144.132 103.416 146.944 100.802C148.887 98.9697 150.543 92.7089 149.235 86.5763C147.928 80.4438 141.645 76.9255 137.636 78.3976Z" fill="white" stroke="#2E353A" stroke-linecap="round" stroke-linejoin="round"/>
<path d="M140.337 90.3389C140.337 90.3389 142.134 88.4576 145.159 90.0091" stroke="#2E353A" stroke-linecap="round" stroke-linejoin="round"/>
<path d="M135.918 89.2761C135.631 88.0912 134.727 87.1566 133.547 86.8329" stroke="#2E353A" stroke-linecap="round" stroke-linejoin="round"/>
<path d="M137.391 88.4576C137.391 88.4576 137.226 90.0091 136.652 90.5833C136.077 91.1574 134.855 91.7255 135.344 92.8738C135.833 94.0221 137.306 94.2603 137.96 93.6068" stroke="#2E353A" stroke-linecap="round" stroke-linejoin="round"/>
<path d="M133.706 85.2692C133.706 85.2692 135.1 83.5528 137.373 85.2692" stroke="#2E353A" stroke-linecap="round" stroke-linejoin="round"/>
<path d="M139.927 86.0877C139.927 86.0877 142.623 84.4507 144.749 87.4742" stroke="#2E353A" stroke-linecap="round" stroke-linejoin="round"/>
<path d="M135.179 95.4881C135.179 95.4881 136.328 97.0396 139.457 96.6303C142.586 96.2211 143.301 94.9139 143.301 94.9139" stroke="#2E353A" stroke-linecap="round" stroke-linejoin="round"/>
<path d="M142.622 90.2961C142.622 90.7237 142.274 91.0718 141.846 91.0718C141.419 91.0718 141.07 90.7237 141.07 90.2961C141.07 89.8685 141.419 89.5204 141.846 89.5204C142.274 89.5204 142.622 89.8685 142.622 90.2961Z" fill="#2E353A"/>
<path d="M135.423 88.4942C135.423 88.9218 135.075 89.27 134.647 89.27C134.219 89.27 133.871 88.9218 133.871 88.4942C133.871 88.0667 134.219 87.7185 134.647 87.7185C135.075 87.7185 135.423 88.0667 135.423 88.4942Z" fill="#2E353A"/>
<path d="M136.982 96.5509C136.982 96.5509 138.29 99.2507 140.581 98.9942C142.873 98.7376 142.708 95.5492 142.708 95.5492C140.979 96.557 138.95 96.9113 136.982 96.5509Z" fill="#2E353A" stroke="#2E353A" stroke-linecap="round" stroke-linejoin="round"/>
<path d="M144.419 71.3733H144.236C141.303 71.7092 137.452 72.3261 135.1 74.2136C132.233 76.498 133.217 77.0722 135.833 78.3793C138.449 79.6864 146.222 84.0232 146.962 90.2351C147.701 96.4471 145.159 106.177 143.937 110.593C142.714 115.01 144.34 118.033 146.717 120.159C147.799 121.167 149.266 121.649 150.739 121.49C152.071 121.356 153.746 121.002 154.803 120.134C154.919 120.043 156.257 118.632 156.025 118.442C154.852 117.447 153.44 118.876 152.725 117.508C151.264 114.698 153.532 111.333 155.066 109.024C156.318 107.136 158.402 105.97 159.674 104.137C160.908 102.158 161.66 99.9165 161.861 97.5954C162.442 92.6234 161.507 87.3521 159.759 82.6916C157.492 76.6446 152.798 71.2694 145.886 71.2878C145.41 71.2939 144.908 71.3183 144.419 71.3733Z" fill="#2E353A"/>
<path d="M131.469 73.9386C131.469 73.9386 140.025 74.8609 145.477 82.2578C150.928 89.6548 152.481 94.6756 152.346 101.541C152.212 108.407 157.767 111.583 161.862 109.598" stroke="#636363" stroke-linecap="round" stroke-linejoin="round"/>
<path d="M138.999 71.8252C138.999 71.8252 150.103 73.9386 153.666 85.0309C157.229 96.1233 155.787 102.879 160.554 103.789" stroke="#636363" stroke-linecap="round" stroke-linejoin="round"/>
<path d="M144.548 92.5623C144.548 92.5623 148.649 102.47 147.604 111.846C146.559 121.222 150.659 122.944 157.253 121.222" stroke="#636363" stroke-linecap="round" stroke-linejoin="round"/>
<path d="M144.419 71.3733H144.236C141.303 71.7092 137.452 72.3261 135.1 74.2136C132.233 76.498 133.217 77.0722 135.833 78.3793C138.449 79.6864 146.222 84.0232 146.962 90.2351C147.701 96.4471 145.159 106.177 143.937 110.593C142.714 115.01 144.34 118.033 146.717 120.159C147.799 121.167 149.266 121.649 150.739 121.49C152.071 121.356 153.746 121.002 154.803 120.134C154.919 120.043 156.257 118.632 156.025 118.442C154.852 117.447 153.44 118.876 152.725 117.508C151.264 114.698 153.532 111.333 155.066 109.024C156.318 107.136 158.402 105.97 159.674 104.137C160.908 102.158 161.66 99.9165 161.862 97.5954C162.442 92.6234 161.507 87.3521 159.759 82.6916C157.492 76.6446 152.798 71.2694 145.886 71.2878C145.41 71.2939 144.908 71.3183 144.419 71.3733Z" stroke="#2E353A" stroke-linecap="round" stroke-linejoin="round"/>
<path d="M104.585 117.074C105.245 117.673 106.027 118.119 106.877 118.381C106.877 118.381 108.185 122.388 108.099 125.577C108.093 127.745 108.246 129.913 108.551 132.057H118.574C116.735 128.893 115.176 125.577 113.905 122.144C112.353 117.483 113.007 114.863 111.943 111.839C110.88 108.816 110.385 107.344 108.588 104.974C106.791 102.604 105.153 103.337 105.153 104.155C105.153 104.974 106.131 105.298 106.871 106.446C107.378 107.295 107.787 108.199 108.093 109.14C108.093 109.14 104.652 110.697 103.674 112.414C102.697 114.13 103.522 116.091 104.585 117.074Z" fill="white" stroke="#2E353A" stroke-linecap="round" stroke-linejoin="round"/>
<path d="M102.214 111.107C102.214 111.107 100.906 112.328 100.906 113.55C100.906 114.771 101.884 116.494 102.379 116.494C102.874 116.494 103.112 115.596 102.868 114.698C102.623 113.8 102.214 111.107 102.214 111.107Z" fill="white" stroke="#2E353A" stroke-linecap="round" stroke-linejoin="round"/>
<path d="M103.766 109.384C103.766 109.384 102.214 110.367 101.805 111.595C101.53 112.676 101.768 113.825 102.458 114.704C102.947 115.437 104.42 115.602 104.83 115.193C105.239 114.784 104.909 113.886 104.83 113.36C104.75 112.835 103.931 111.235 104.011 110.502C104.06 110.123 104.09 109.738 104.096 109.354L103.766 109.384Z" fill="white" stroke="#2E353A" stroke-linecap="round" stroke-linejoin="round"/>
<path d="M108.105 109.14C108.105 109.14 105.972 107.832 104.341 108.73C102.709 109.628 102.782 111.43 103.357 112.737C103.931 114.044 105.404 114.784 106.058 114.209C106.712 113.635 105.972 112.737 106.137 111.516C106.302 110.294 108.105 109.14 108.105 109.14Z" fill="white" stroke="#2E353A" stroke-linecap="round" stroke-linejoin="round"/>
<path d="M110.232 111.43C110.232 111.43 108.509 109.14 106.956 109.305C105.404 109.47 102.868 112.359 103.357 113.067C103.846 113.776 106.773 112.652 106.773 112.652C106.773 112.652 105.954 115.352 107.995 115.92" fill="white"/>
<path d="M110.232 111.43C110.232 111.43 108.509 109.14 106.956 109.305C105.404 109.47 102.868 112.359 103.357 113.067C103.846 113.776 106.773 112.652 106.773 112.652C106.773 112.652 105.954 115.352 107.995 115.92" stroke="#2E353A" stroke-linecap="round" stroke-linejoin="round"/>
<path d="M164.795 132.057H64.5493" stroke="#2E353A" stroke-linecap="round" stroke-linejoin="round"/>
<path d="M164.795 180.366H64.549" stroke="#2E353A" stroke-linecap="round" stroke-linejoin="round"/>
<path d="M118.464 180.171C118.464 180.171 119.356 172.267 116.288 170.19C113.221 168.113 99.8854 158.536 94.7457 157.363C89.6059 156.19 86.4463 155.091 84.3562 156.276C82.2661 157.461 73.6979 165.182 70.141 167.625C66.5842 170.068 64.8058 172.664 64.3107 174.539C64.0052 176.201 63.9013 177.893 64.0113 179.578V180.366C64.0113 180.366 118.666 179.969 118.464 180.171Z" fill="#2E353A" stroke="#2E353A" stroke-linecap="round" stroke-linejoin="round"/>
<path d="M84.3687 156.264C83.5497 156.795 82.7613 157.375 82.0157 157.998C82.0402 160.032 82.4558 162.036 83.238 163.911C85.7926 170.117 91.5435 173.635 96.072 171.772C99.9345 170.184 101.688 165.224 100.57 159.965C98.7427 158.86 96.781 157.98 94.7397 157.351C89.6061 156.166 86.4465 155.079 84.3687 156.264Z" fill="white" stroke="#2E353A" stroke-linecap="round" stroke-linejoin="round"/>
<path d="M85.554 146.979C85.554 146.979 85.3584 153.008 84.8634 155.573C84.3684 158.139 84.3684 161.602 86.8435 165.957C89.3186 170.312 95.3384 170.105 97.233 168.401C99.1275 166.696 98.7119 161.981 98.7119 160.203C98.7119 158.426 99.757 154.248 99.757 154.248C99.757 154.248 93.9694 152.006 91.0054 150.033C88.0414 148.061 86.5441 146.387 85.554 146.979Z" fill="white" stroke="#2E353A" stroke-linecap="round" stroke-linejoin="round"/>
<path d="M101.272 130.885C101.272 130.885 103.644 134.934 104.237 136.119C104.707 137.182 104.597 138.416 103.937 139.375C103.399 140.126 108.215 142.472 108.129 143.705C108.044 144.939 107.61 145.617 106.638 147.016C105.575 148.543 105.972 151.102 105.502 152.898C105.104 154.425 104.615 154.804 103.057 155.378C100.087 156.465 94.556 156.068 91.7875 154.688C89.019 153.307 88.0351 150.834 87.0451 149.056C86.055 147.279 85.9572 144.017 86.55 140.56C87.1428 137.103 91.7875 132.46 94.7516 131.178C97.7156 129.895 101.272 130.885 101.272 130.885Z" fill="white" stroke="#2E353A" stroke-linecap="round" stroke-linejoin="round"/>
<path d="M104.133 149.154C102.495 149.588 100.747 149.343 99.2926 148.464C99.2926 148.464 99.2926 151.426 100.778 151.518C102.263 151.609 104.133 149.154 104.133 149.154Z" fill="#2E353A"/>
<path d="M101.273 141.158C101.425 141.824 101.273 142.429 100.918 142.508C100.564 142.588 100.173 142.111 100.02 141.445C99.8669 140.78 100.02 140.175 100.374 140.096C100.729 140.016 101.101 140.493 101.273 141.158Z" fill="#2E353A"/>
<path d="M97.4165 139.179C98.1132 138.135 99.3294 137.567 100.576 137.695" stroke="#2E353A" stroke-linecap="round" stroke-linejoin="round"/>
<path d="M106.901 146.088C106.901 146.088 105.373 147.737 104.426 147.859C103.479 147.981 102.421 146.68 102.892 145.855" stroke="#2E353A" stroke-linecap="round" stroke-linejoin="round"/>
<path d="M89.4103 146.979C89.8809 146.827 92.1788 147.181 91.8549 145.892C91.5309 144.603 90.8709 144.414 91.3598 143.449C91.8487 142.484 96.8968 140.089 95.8089 138.117C95.0878 136.84 94.2261 135.649 93.2422 134.562C93.2422 134.562 101.541 132.98 103.32 130.512C105.098 128.044 103.124 124.19 101.046 124.19C98.9686 124.19 99.9586 124.88 94.4278 126.633C88.8969 128.386 86.1223 126.242 81.9727 130.585C77.823 134.928 79.1064 143.412 80.6893 146.094C82.2721 148.775 85.4317 150.931 87.0146 150.339C88.5975 149.746 88.2247 147.376 89.4103 146.979Z" fill="#2E353A" stroke="#2E353A" stroke-linecap="round" stroke-linejoin="round"/>
<path d="M90.8833 147.871C90.8833 147.871 87.2164 143.229 84.7719 144.707C82.3273 146.185 85.9575 150.638 87.5403 151.133C89.1232 151.628 90.9994 150.437 90.9994 150.437" fill="white"/>
<path d="M90.8833 147.871C90.8833 147.871 87.2164 143.229 84.7719 144.707C82.3273 146.185 85.9575 150.638 87.5403 151.133C89.1232 151.628 90.9994 150.437 90.9994 150.437" stroke="#2E353A" stroke-linecap="round" stroke-linejoin="round"/>
<path d="M164.135 208.506H63.7911" stroke="#2E353A" stroke-linecap="round" stroke-linejoin="round"/>
<path d="M111.503 205.88C111.503 205.88 111.412 200.444 112.225 199.625C113.037 198.807 133.077 187.849 138.699 187.934C144.322 188.02 152.004 195.673 156.105 197.707C162.632 200.969 162.632 202.777 163.175 204.591C163.719 206.405 164.172 208.488 164.172 208.488H111.503V205.88Z" fill="white"/>
<path d="M163.915 207.395C162.399 207.291 160.767 207.199 159.026 207.126L159.722 202.765L162.595 202.887C162.228 202.117 161.709 201.433 161.067 200.877L160.028 200.835L160.144 200.126C160.003 200.022 159.857 199.912 159.698 199.808L159.539 200.816L158.604 200.78L158.848 199.253C158.323 198.929 157.724 198.587 157.046 198.226L156.972 198.66C154.974 198.55 152.963 198.471 150.959 198.41L151.295 195.356L152.517 195.386C151.337 194.531 150.072 193.554 148.734 192.625L148.624 193.371C146.418 193.34 144.218 193.328 142.054 193.322L142.464 188.863L141.993 188.667L141.565 193.322H140.575L140.948 188.301C140.325 188.111 139.683 187.989 139.029 187.94L138.626 193.328C137.458 193.328 136.303 193.328 135.16 193.328L135.527 188.441L135.026 188.594L134.672 193.309H133.028L133.156 189.211C132.545 189.437 131.866 189.693 131.194 189.962L131.09 193.334C129.391 193.334 127.747 193.389 126.171 193.426L126.232 192.131L125.737 192.363L125.682 193.438H124.417V192.955C122.632 193.816 120.89 194.69 119.301 195.521L122.357 195.429L122.235 198.544L118.996 198.776L119.106 195.722L118.611 195.979L118.513 198.788L117.657 198.831L117.786 196.388C117.065 196.773 116.392 197.133 115.781 197.469L115.708 198.917L112.97 199.082C112.719 199.222 112.481 199.387 112.255 199.564L112.212 199.619L115.683 199.405L115.604 200.902L111.772 201.048C111.68 201.659 111.625 202.331 111.589 202.997C112.701 202.954 114.033 202.899 115.5 202.85L115.286 206.888L111.534 206.961V207.444L115.262 207.37L115.207 208.445H117.15L117.205 207.334H118.213L118.171 208.458H118.66L118.696 207.321L121.978 207.273L121.929 208.458H123.873L123.922 207.236H125.083L125.028 208.458H125.517L125.572 207.236L130.699 207.193L130.662 208.464H132.6L132.643 207.187H133.663L133.572 208.47H134.054L134.152 207.187H137.611L137.513 208.476H139.457L139.555 207.193H140.319L140.202 208.47H140.691L140.807 207.193C142.757 207.193 144.707 207.193 146.632 207.242L146.454 208.464H148.41L148.587 207.242H149.528L149.4 208.421H149.889L150.017 207.248C151.924 207.285 153.788 207.334 155.591 207.395L155.426 208.421H157.388L157.541 207.462L158.5 207.499L158.353 208.421H158.842L158.983 207.523C160.78 207.602 162.472 207.694 164.043 207.798C164 207.743 163.958 207.578 163.915 207.395ZM118.201 206.894H117.199L117.413 202.826L118.342 202.795L118.201 206.894ZM118.409 200.871L117.517 200.902L117.602 199.356L118.464 199.314L118.409 200.871ZM121.966 206.839L118.684 206.888L118.825 202.795L122.131 202.704L121.966 206.839ZM122.204 200.761L118.892 200.853L118.947 199.289C119.986 199.234 121.098 199.185 122.271 199.137L122.204 200.761ZM125.077 206.802H123.909L124.074 202.637H125.297L125.077 206.802ZM125.364 200.694L124.142 200.725L124.209 199.069L125.431 199.021L125.364 200.694ZM125.462 198.538L124.239 198.581L124.362 195.496H125.614L125.462 198.538ZM130.687 206.766L125.566 206.808L125.755 202.624L130.815 202.527L130.687 206.766ZM130.876 200.59C129.141 200.59 127.46 200.645 125.847 200.682L125.926 199.002C127.515 198.947 129.19 198.898 130.931 198.862L130.876 200.59ZM130.944 198.373C129.208 198.416 127.54 198.465 125.951 198.52L126.091 195.466C127.68 195.429 129.336 195.398 131.041 195.374L130.944 198.373ZM132.979 195.319H134.543L134.317 198.306H132.887L132.979 195.319ZM133.663 206.717H132.624L132.759 202.441H133.981L133.663 206.717ZM132.795 200.523L132.85 198.782H134.256L134.128 200.535L132.795 200.523ZM137.636 206.717H134.177L134.494 202.441H137.96L137.636 206.717ZM138.1 200.486H134.641L134.769 198.733C135.906 198.733 137.061 198.721 138.235 198.697L138.1 200.486ZM138.271 198.239L134.806 198.269L135.026 195.288H138.491L138.271 198.239ZM140.441 195.258H141.4L141.131 198.233H140.215L140.441 195.258ZM140.349 206.717H139.579L139.903 202.411H140.746L140.349 206.717ZM140.05 200.468L140.178 198.709H141.082L140.924 200.468H140.05ZM146.687 206.772C144.755 206.772 142.8 206.729 140.838 206.723L141.235 202.411C143.24 202.411 145.269 202.411 147.316 202.441L146.687 206.772ZM147.597 200.505C145.519 200.505 143.448 200.468 141.412 200.468L141.571 198.709C143.631 198.709 145.733 198.74 147.848 198.782L147.597 200.505ZM147.921 198.3C145.794 198.257 143.686 198.233 141.614 198.226L141.889 195.252C144.022 195.252 146.167 195.252 148.355 195.301L147.921 198.3ZM150.317 195.331H150.836L150.5 198.385H149.889L150.317 195.331ZM149.803 198.831H150.451L150.262 200.523H149.559L149.803 198.831ZM149.553 206.845H148.624L149.235 202.508H150.005L149.553 206.845ZM155.664 206.998C153.831 206.937 151.997 206.888 150.072 206.851L150.549 202.508C152.492 202.539 154.436 202.588 156.373 202.643L155.664 206.998ZM156.685 200.712C154.717 200.651 152.737 200.609 150.763 200.572L150.946 198.892C152.945 198.953 154.943 199.033 156.942 199.143L156.685 200.712ZM158.573 207.108L157.62 207.065L158.329 202.71L159.27 202.74L158.573 207.108Z" fill="#AAAAAA"/>
<path d="M111.503 205.88C111.503 205.88 111.412 200.444 112.225 199.625C113.037 198.807 133.077 187.849 138.699 187.934C144.322 188.02 152.004 195.673 156.105 197.707C162.632 200.969 162.632 202.777 163.175 204.591C163.719 206.405 164.172 208.488 164.172 208.488H111.503V205.88Z" stroke="#2E353A" stroke-linecap="round" stroke-linejoin="round"/>
<path d="M135.705 185.76C135.705 185.76 132.985 185.943 132.264 187.305C131.543 188.667 131.897 189.48 130.43 193.554C128.964 197.628 128.163 198.813 128.982 198.813C129.801 198.813 132.038 196.455 132.875 196.095C133.712 195.734 135.601 198.898 135.601 198.898C135.601 198.898 139.225 196.999 140.404 196.907C141.584 196.815 144.12 201.708 144.572 200.896C145.024 200.083 146.204 197.09 147.475 194.372C148.746 191.654 149.015 189.388 147.927 187.574C146.84 185.76 136.615 185.216 135.705 185.76Z" fill="#2E353A" stroke="#2E353A" stroke-linecap="round" stroke-linejoin="round"/>
<path d="M134.073 184.856C133.657 187.647 133.627 190.481 133.981 193.285C134.592 197.359 135.527 199.717 136.248 199.173C136.97 198.629 141.419 195.911 143.686 193.102C145.953 190.292 146.314 189.932 146.95 188.392C147.585 186.853 148.306 185.131 148.306 185.131C148.306 185.131 139.879 188.301 134.073 184.856Z" fill="white" stroke="#2E353A" stroke-linecap="round" stroke-linejoin="round"/>
<path d="M134.165 169.903C134.165 169.903 132.533 167.368 131.628 170.361C130.724 173.354 132.893 174.979 133.168 174.796C133.443 174.612 134.165 169.903 134.165 169.903Z" fill="white" stroke="#2E353A" stroke-linecap="round" stroke-linejoin="round"/>
<path d="M134.983 163.563C134.983 163.563 131.989 176.518 131.353 180.238C130.718 183.958 134.8 187.391 139.335 188.026C143.869 188.661 148.215 186.487 149.394 184.221C150.574 181.955 154.283 167.46 154.833 166.464C155.383 165.469 157.278 161.12 155.836 159.666C154.393 158.212 152.028 159.306 152.028 159.306C152.028 159.306 150.39 155.134 147.585 155.03C144.78 154.926 144.407 156.203 144.407 156.203C144.407 156.203 141.963 153.216 139.695 153.851C137.428 154.486 137.428 155.934 137.428 155.934C137.428 155.934 133.26 154.938 131.72 157.925C130.18 160.912 134.439 161.822 134.439 161.822C134.439 161.822 133.529 163.111 134.983 163.563Z" fill="white" stroke="#2E353A" stroke-linecap="round" stroke-linejoin="round"/>
<path d="M151.57 174.167C151.845 174.075 153.66 171.174 155.377 172.334C157.094 173.495 155.108 177.954 153.66 178.674C152.682 179.2 151.466 178.839 150.934 177.862C150.903 177.801 150.873 177.74 150.848 177.679" fill="white"/>
<path d="M151.57 174.167C151.845 174.075 153.66 171.174 155.377 172.334C157.094 173.495 155.108 177.954 153.66 178.674C152.682 179.2 151.466 178.839 150.934 177.862C150.903 177.801 150.873 177.74 150.848 177.679" stroke="#2E353A" stroke-linecap="round" stroke-linejoin="round"/>
<path d="M155.835 159.684C154.381 158.237 152.028 159.324 152.028 159.324C152.028 159.324 150.39 155.152 147.585 155.048C144.78 154.944 144.407 156.221 144.407 156.221C144.407 156.221 141.962 153.234 139.695 153.869C137.428 154.505 137.428 155.952 137.428 155.952C137.428 155.952 133.26 154.957 131.72 157.944C130.18 160.93 134.439 161.84 134.439 161.84C134.439 161.84 133.529 163.111 134.983 163.563C135.527 163.019 136.615 160.576 142.146 160.509C147.677 160.442 152.114 164.406 152.114 164.406C152.114 164.406 150.121 166.758 150.757 167.753C151.392 168.749 152.114 168.663 152.028 169.476C151.942 170.288 150.195 177.722 149.486 178.9C148.685 180.073 147.237 180.617 145.862 180.263C144.59 179.896 143.863 178.992 141.584 177.819C139.304 176.647 137.409 176.188 135.778 176.824C134.146 177.459 134.054 178.003 133.15 178.271C132.367 178.51 132.123 177.996 131.897 177.392C131.652 178.571 131.457 179.578 131.335 180.269C130.724 183.982 134.782 187.421 139.316 188.056C143.851 188.692 148.196 186.517 149.376 184.251C150.555 181.985 154.265 167.49 154.815 166.495C155.365 165.499 157.284 161.12 155.835 159.684Z" fill="#2E353A" stroke="#2E353A" stroke-linecap="round" stroke-linejoin="round"/>
<path d="M136.163 178.516C136.163 178.516 139.512 180.598 141.779 179.328C141.779 179.328 139.512 182.046 138.339 182.046C137.165 182.046 136.163 178.516 136.163 178.516Z" fill="white" stroke="#2E353A" stroke-linecap="round" stroke-linejoin="round"/>
<path d="M138.699 170.856C138.699 172.542 137.33 173.91 135.643 173.91C133.957 173.91 132.588 172.542 132.588 170.856C132.588 169.17 133.957 167.802 135.643 167.802C137.33 167.802 138.699 169.17 138.699 170.856Z" stroke="#2E353A" stroke-linecap="round" stroke-linejoin="round"/>
<path d="M147.493 172.395C147.493 174.081 146.124 175.449 144.438 175.449C142.751 175.449 141.382 174.081 141.382 172.395C141.382 170.709 142.751 169.341 144.438 169.341C146.124 169.341 147.493 170.709 147.493 172.395Z" stroke="#2E353A" stroke-linecap="round" stroke-linejoin="round"/>
<path d="M138.791 170.538C138.791 170.538 140.056 169.928 141.602 171.149" stroke="#2E353A" stroke-linecap="round" stroke-linejoin="round"/>
<path d="M147.493 172.395L153.385 172.621" stroke="#2E353A" stroke-linecap="round" stroke-linejoin="round"/>
<path d="M139.243 170.905C138.497 172.316 137.831 173.77 137.251 175.254C137.067 176.066 138.064 176.518 139.335 176.518C140.606 176.518 141.168 175.975 141.168 175.431" stroke="#2E353A" stroke-linecap="round" stroke-linejoin="round"/>
<path d="M138.968 167.46C138.846 167.46 138.724 167.429 138.614 167.368C137.648 166.733 136.407 166.69 135.393 167.246C135.057 167.472 134.598 167.381 134.372 167.045C134.146 166.709 134.238 166.251 134.574 166.025C136.047 165.157 137.88 165.175 139.329 166.079C139.677 166.275 139.805 166.715 139.61 167.069C139.482 167.301 139.231 167.448 138.968 167.442V167.46Z" fill="#2E353A" stroke="#2E353A" stroke-linecap="round" stroke-linejoin="round"/>
<path d="M147.854 170.453C147.609 170.459 147.383 170.343 147.243 170.147C146.369 168.791 144.731 168.138 143.16 168.517C142.775 168.62 142.372 168.394 142.268 168.01C142.17 167.643 142.366 167.258 142.726 167.13C144.896 166.556 147.188 167.435 148.428 169.304C148.661 169.634 148.587 170.086 148.257 170.318C148.129 170.41 147.976 170.459 147.817 170.453H147.854Z" fill="#2E353A" stroke="#2E353A" stroke-linecap="round" stroke-linejoin="round"/>
<path d="M136.022 172.078C136.346 172.078 136.609 171.591 136.609 170.99C136.609 170.39 136.346 169.903 136.022 169.903C135.698 169.903 135.436 170.39 135.436 170.99C135.436 171.591 135.698 172.078 136.022 172.078Z" fill="#2E353A" stroke="#2E353A" stroke-linecap="round" stroke-linejoin="round"/>
<path d="M144.59 172.353C144.59 172.963 144.328 173.44 143.979 173.44C143.631 173.44 143.368 172.951 143.368 172.353C143.368 171.754 143.631 171.265 143.979 171.265C144.328 171.265 144.59 171.754 144.59 172.353Z" fill="#2E353A" stroke="#2E353A" stroke-linecap="round" stroke-linejoin="round"/>
</svg>
