<svg width="232" height="232" viewBox="0 0 232 232" fill="none" xmlns="http://www.w3.org/2000/svg">
<g opacity="0.08">
<path opacity="0.08" d="M1.39253 129.621C1.39253 129.621 8.81242 169.755 46.4459 191.503C84.073 213.251 130.849 208.063 168.871 204.859C206.892 201.656 232.547 175.849 231.994 142.863C231.441 109.877 201.246 104.791 180.055 70.3818C158.863 35.979 158.418 23.6691 121.967 6.0944C85.5163 -11.4739 35.9869 10.3253 14.8017 53.2346C-6.3834 96.144 1.39253 129.621 1.39253 129.621Z" fill="#00B533"/>
<path opacity="0.7" d="M1.39253 129.621C1.39253 129.621 8.81242 169.755 46.4459 191.503C84.073 213.251 130.849 208.063 168.871 204.859C206.892 201.656 232.547 175.849 231.994 142.863C231.441 109.877 201.246 104.791 180.055 70.3818C158.863 35.979 158.418 23.6691 121.967 6.0944C85.5163 -11.4739 35.9869 10.3253 14.8017 53.2346C-6.3834 96.144 1.39253 129.621 1.39253 129.621Z" fill="#00B533"/>
</g>
<path d="M229.584 113.074H133.151C132.973 113.074 132.833 112.934 132.833 112.755V46.0364C132.833 45.8577 132.973 45.7173 133.151 45.7173H229.584C229.762 45.7173 229.902 45.8577 229.902 46.0364V112.755C229.902 112.934 229.762 113.074 229.584 113.074ZM133.469 112.436H229.266V46.3554H133.469V112.436Z" fill="#2E353A"/>
<path d="M220.187 55.6532C218.826 55.6532 217.72 54.5428 217.72 53.1772C217.72 51.8116 218.826 50.7012 220.187 50.7012C221.547 50.7012 222.654 51.8116 222.654 53.1772C222.654 54.5428 221.554 55.6532 220.187 55.6532ZM220.187 51.3393C219.176 51.3393 218.356 52.1625 218.356 53.1772C218.356 54.1919 219.176 55.0151 220.187 55.0151C221.198 55.0151 222.018 54.1919 222.018 53.1772C222.018 52.1625 221.198 51.3393 220.187 51.3393Z" fill="#2E353A"/>
<path d="M214.63 53.1772C214.63 54.3706 213.67 55.3342 212.481 55.3342C211.292 55.3342 210.332 54.3706 210.332 53.1772C210.332 51.9839 211.292 51.0203 212.481 51.0203C213.67 51.0203 214.63 51.9903 214.63 53.1772Z" fill="#2E353A"/>
<path d="M206.924 53.1772C206.924 54.3706 205.964 55.3342 204.775 55.3342C203.586 55.3342 202.626 54.3706 202.626 53.1772C202.626 51.9839 203.586 51.0203 204.775 51.0203C205.964 51.0203 206.924 51.9903 206.924 53.1772Z" fill="#2E353A"/>
<path d="M223.315 60.752H139.91V107.273H223.315V60.752Z" fill="#00B533"/>
<path d="M186.012 98.7732H185.917C176.602 98.569 169.214 90.8218 169.418 81.4729C169.615 72.3729 176.939 65.0597 186.006 64.9065H186.108C195.429 64.932 202.963 72.5388 202.931 81.8941C202.906 91.2494 195.327 98.8115 186.012 98.7796V98.7732ZM186.012 65.5383C177.047 65.6914 169.901 73.1067 170.047 82.1111C170.193 90.8601 177.2 97.9372 185.923 98.1287H186.019C194.99 98.1542 202.276 90.8793 202.302 81.8749C202.327 72.8706 195.079 65.5574 186.108 65.5319L186.012 65.5383Z" fill="white"/>
<path d="M182.547 74.3638L182.464 89.8836L193.801 82.1301L182.547 74.3638Z" fill="white"/>
<path d="M96.2235 57.5167H17.9047C17.7267 57.5167 17.5868 57.3763 17.5868 57.1976V45.2961C17.5868 45.1174 17.7267 44.9771 17.9047 44.9771H96.2235C96.3952 44.9834 96.5351 45.1238 96.5414 45.2961V57.204C96.5414 57.3763 96.3952 57.5167 96.2235 57.5167ZM18.2226 56.8786H95.9056V45.6152H18.2226V56.8786Z" fill="#2E353A"/>
<path d="M27.3527 51.2499C27.3591 52.5134 26.3418 53.5345 25.0829 53.5408C23.824 53.5472 22.8067 52.5262 22.8003 51.2626C22.794 49.9991 23.8113 48.9781 25.0702 48.9717C25.0765 48.9717 25.0765 48.9717 25.0829 48.9717C26.3354 48.9717 27.3527 49.9927 27.3527 51.2499Z" fill="#2E353A"/>
<path d="M37.3923 51.2499C37.3923 52.5071 36.375 53.5281 35.1224 53.5281C33.8699 53.5281 32.8526 52.5071 32.8526 51.2499C32.8526 49.9928 33.8635 48.9781 35.1161 48.9717C36.3686 48.9653 37.3859 49.9864 37.3923 51.2435C37.3923 51.2499 37.3923 51.2499 37.3923 51.2499Z" fill="#2E353A"/>
<path d="M47.438 51.2499C47.4443 52.5134 46.427 53.5345 45.1681 53.5408C43.9092 53.5472 42.8919 52.5262 42.8856 51.2626C42.8792 49.9991 43.8965 48.9781 45.1554 48.9717C45.1618 48.9717 45.1618 48.9717 45.1681 48.9717C46.4207 48.9717 47.438 49.9927 47.438 51.2499Z" fill="#2E353A"/>
<path d="M98.964 42.7817H93.655C93.477 42.7817 93.3371 42.6413 93.3371 42.4626C93.3371 42.2839 93.477 42.1436 93.655 42.1436H98.964C99.142 42.1436 99.2819 42.2839 99.2819 42.4626C99.2819 42.6413 99.142 42.7817 98.964 42.7817Z" fill="#2E353A"/>
<path d="M31.1549 61.8943H10.6692C10.4911 61.8943 10.3513 61.7539 10.3513 61.5752C10.3513 61.3965 10.4911 61.2561 10.6692 61.2561H31.1549C31.3329 61.2561 31.4728 61.3965 31.4728 61.5752C31.4728 61.7539 31.3329 61.8943 31.1549 61.8943Z" fill="#2E353A"/>
<path d="M153.694 230.654C153.007 218.382 152.537 209.882 152.537 209.882C108.832 220.507 85.1795 203.449 85.1795 203.449C85.1795 203.449 83.272 215.529 80.8433 230.654H153.694Z" fill="#2E353A"/>
<path d="M153.694 230.973H80.8433C80.7479 230.973 80.6589 230.928 80.6016 230.858C80.5444 230.788 80.519 230.692 80.5317 230.602C82.9541 215.478 84.8679 203.398 84.8679 203.398C84.887 203.29 84.9569 203.2 85.0587 203.156C85.1604 203.111 85.2748 203.124 85.3638 203.187C85.6055 203.36 109.416 220.035 152.461 209.569C152.55 209.543 152.645 209.563 152.721 209.62C152.798 209.678 152.849 209.767 152.849 209.863C152.849 209.863 153.319 218.356 154.012 230.628C154.018 230.807 153.879 230.96 153.701 230.966H153.694V230.973ZM81.212 230.334H153.376C152.785 219.754 152.353 212.045 152.257 210.284C112.271 219.856 88.8163 206.161 85.4338 203.992C85.0396 206.372 83.3293 217.163 81.212 230.334Z" fill="#2E353A"/>
<path d="M153.694 230.654C153.007 218.382 152.537 209.882 152.537 209.882C108.831 220.507 85.1794 203.449 85.1794 203.449C85.1794 203.449 83.272 215.529 80.8432 230.654H153.694Z" fill="white" stroke="#263238" stroke-width="3.2114" stroke-miterlimit="10" stroke-linecap="round" stroke-linejoin="round"/>
<path d="M153.694 230.973H80.8433C80.7479 230.973 80.6589 230.928 80.6016 230.858C80.5444 230.788 80.519 230.692 80.5317 230.602C82.9541 215.478 84.8679 203.398 84.8679 203.398C84.887 203.29 84.9569 203.2 85.0587 203.156C85.1604 203.111 85.2748 203.124 85.3638 203.187C85.6055 203.36 109.416 220.035 152.461 209.569C152.55 209.543 152.645 209.563 152.721 209.62C152.798 209.678 152.849 209.767 152.849 209.863C152.849 209.863 153.319 218.356 154.012 230.628C154.018 230.807 153.879 230.96 153.701 230.966H153.694V230.973ZM81.212 230.334H153.376C152.785 219.754 152.353 212.045 152.257 210.284C112.271 219.856 88.8163 206.161 85.4338 203.992C85.0396 206.372 83.3293 217.163 81.212 230.334Z" fill="white" stroke="#263238" stroke-width="3.2114" stroke-miterlimit="10" stroke-linecap="round" stroke-linejoin="round"/>
<path d="M28.5098 110.624C28.4462 112.608 27.1682 114.395 27.1237 116.367C27.0856 118.218 28.1283 119.902 28.4843 121.715C28.8658 123.667 28.4843 125.671 28.7323 127.63C28.904 128.894 29.2537 130.125 29.7559 131.3C30.1247 132.225 30.7287 133.029 31.5108 133.642C32.7824 134.586 34.5944 134.548 36.1267 134.548C37.7099 134.637 39.2803 134.191 40.5774 133.272C41.5502 132.391 42.3386 131.325 42.8917 130.132C43.4958 129.213 43.8709 128.16 43.979 127.062C43.9726 126.443 43.8391 125.831 43.5975 125.256C42.3259 122.123 39.1468 119.89 38.6128 116.558C38.3839 115.135 38.6763 113.687 38.8035 112.257C38.9307 110.828 38.848 109.264 37.9833 108.109C36.5527 106.195 33.202 105.793 30.9894 105.799C27.7595 105.806 28.5924 108.256 28.5098 110.624Z" fill="white"/>
<path d="M35.7515 134.873C34.2637 134.873 32.617 134.829 31.3581 133.91C30.5252 133.265 29.883 132.41 29.4952 131.434C28.9802 130.234 28.6305 128.977 28.4525 127.681C28.3507 126.762 28.3189 125.837 28.3634 124.918C28.4207 123.872 28.3634 122.819 28.2045 121.785C28.0455 121.089 27.8294 120.407 27.5687 119.743C26.5768 117.733 26.5641 115.378 27.5305 113.361C27.8993 112.487 28.1218 111.555 28.2045 110.611C28.2045 110.177 28.2045 109.737 28.2045 109.335C28.16 108.109 28.1155 106.954 28.8403 106.214C29.438 105.684 30.2327 105.423 31.0275 105.493C33.0748 105.493 36.6925 105.793 38.2884 107.931C39.0641 108.964 39.3438 110.349 39.1722 112.296C39.1404 112.653 39.1022 113.01 39.0577 113.361C38.8861 114.408 38.8606 115.467 38.9751 116.52C39.2675 118.339 40.3866 119.813 41.5755 121.37C42.5292 122.519 43.324 123.789 43.9407 125.148C44.1951 125.754 44.3349 126.405 44.3477 127.062C44.2332 128.205 43.8517 129.296 43.2223 130.253C42.6373 131.478 41.8235 132.582 40.8253 133.495C39.4774 134.465 37.837 134.944 36.1775 134.848H35.7515V134.873ZM28.8594 110.624C28.7767 111.632 28.5415 112.627 28.1536 113.566C27.2317 115.442 27.2444 117.65 28.1918 119.513C28.4588 120.209 28.6686 120.923 28.8276 121.651C28.9992 122.729 29.0565 123.827 28.9992 124.918C28.9547 125.805 28.9865 126.699 29.0819 127.586C29.2536 128.817 29.5906 130.023 30.0801 131.166C30.4235 132.04 30.9957 132.806 31.7332 133.38C32.8904 134.222 34.5308 134.222 35.9741 134.222H36.1584C37.6717 134.318 39.1722 133.884 40.412 133.004C41.3466 132.142 42.1033 131.108 42.6437 129.953C43.2223 129.079 43.5783 128.077 43.6928 127.037C43.6801 126.456 43.5593 125.882 43.3304 125.352C42.7391 124.044 41.9697 122.825 41.0478 121.727C39.8716 120.17 38.6508 118.537 38.3266 116.622C38.1994 115.512 38.2312 114.395 38.4092 113.291C38.4474 112.94 38.4919 112.589 38.5173 112.238C38.6762 110.458 38.4346 109.213 37.7607 108.314C36.2793 106.329 32.5407 106.15 31.0084 106.131C30.3853 106.067 29.7622 106.259 29.279 106.654C28.764 107.197 28.7958 108.173 28.8403 109.309C28.8403 109.749 28.8784 110.202 28.8403 110.656L28.8594 110.624Z" fill="#2E353A"/>
<path d="M32.636 134.197L34.7596 151.114C34.7596 151.114 46.7637 148.153 50.3052 143.399L43.4957 128.364" fill="white"/>
<path d="M34.7599 151.433C34.6963 151.433 34.6328 151.414 34.5755 151.376C34.4993 151.325 34.4547 151.242 34.442 151.153L32.3184 134.235C32.293 134.063 32.4202 133.903 32.5918 133.878C32.7635 133.852 32.9224 133.967 32.9479 134.139C32.9479 134.146 32.9479 134.152 32.9479 134.159L35.027 150.712C36.9916 150.189 46.7131 147.432 49.9367 143.354L43.2035 128.498C43.1335 128.339 43.2035 128.147 43.3624 128.071C43.5214 128 43.7121 128.071 43.782 128.23L50.5979 143.265C50.6424 143.374 50.6297 143.495 50.5598 143.59C46.9929 148.377 35.3004 151.299 34.8299 151.421L34.7599 151.433Z" fill="#2E353A"/>
<path d="M54.5269 144.567L58.3417 153.118L97.5965 129.953L105.055 119.966L110.192 132.506L99.701 157.164C91.5118 162.914 82.903 168.038 73.9445 172.48C69.6718 174.662 65.2911 176.621 60.815 178.338C56.536 179.946 52.079 181.044 47.6665 182.224C47.3677 182.333 47.0371 182.333 46.7382 182.224C46.5411 182.122 46.4585 181.88 46.2804 181.733C43.0505 179.123 34.9503 155.856 34.1174 148.447L54.5269 144.567Z" fill="#2E353A"/>
<path d="M160.122 110.7L178.281 136.616C182.75 142.991 183.151 151.382 179.317 158.16C172.323 170.54 161.139 189.429 155.309 194.892C155.309 194.892 158.03 200.482 157.617 202.549C157.204 204.617 153.363 205.038 153.363 205.038L159.27 215.21C159.27 215.21 127.232 243.64 82.1656 206.71L91.5438 173.718L86.5782 170.157L106.498 103.374L126.971 101.166L133.196 117.707L139.916 109.73L146.662 117.707L160.122 110.7Z" fill="#2E353A"/>
<path d="M73.2899 139.315C92.5573 139.315 108.177 123.638 108.177 104.3C108.177 84.9611 92.5573 69.2842 73.2899 69.2842C54.0224 69.2842 38.4031 84.9611 38.4031 104.3C38.4031 123.638 54.0224 139.315 73.2899 139.315Z" fill="#00B533"/>
<path d="M73.2643 139.634C53.8213 139.621 38.066 123.795 38.0787 104.28C38.0914 84.7657 53.8594 68.9523 73.3024 68.9651C92.7391 68.9779 108.488 84.7913 108.488 104.3C108.469 123.814 92.7073 139.628 73.2643 139.634ZM73.2643 69.6096C54.171 69.6224 38.7018 85.1614 38.7145 104.325C38.7272 123.489 54.2091 139.015 73.3024 139.002C92.3894 138.989 107.859 123.457 107.852 104.3C107.827 85.1422 92.3513 69.6224 73.2643 69.6096Z" fill="#2E353A"/>
<path d="M59.4864 90.8855L70.3206 121.53L92.186 97.2223L59.4864 90.8855Z" fill="white"/>
<path d="M98.8301 151.44C98.8301 151.44 92.1223 165.422 87.074 166.947L79.5206 157.266L73.1626 149.111L71.5412 147.1L71.5031 147.037L64.7063 134.727L63.9433 133.342L63.7144 132.334L63.174 129.96L63.1359 129.787L63.2312 129.5L64.5028 125.946L66.7727 123.329V123.233L67.5929 119.034L67.6819 118.581L69.8436 117.241C69.8436 117.241 69.8436 117.241 69.8436 117.209C69.691 116.801 68.0952 112.238 69.3413 109.583C69.602 108.99 70.0471 108.499 70.613 108.179C70.8609 108.039 71.128 107.924 71.4077 107.848C71.4586 107.739 71.5285 107.643 71.6112 107.554C71.8083 107.331 72.1516 107.158 72.5522 107.726C72.7366 108.007 72.8828 108.314 72.9845 108.639C73.0545 108.811 73.1244 109.015 73.1943 109.239C73.1943 109.341 73.2516 109.443 73.2834 109.552C73.3152 109.66 73.3533 109.781 73.3914 109.902C73.4677 110.158 73.5504 110.413 73.6331 110.668C74.8029 114.319 76.9901 120.521 77.1554 120.968L82.439 122.717L83.0748 122.921L83.3863 123.776L85.2302 128.843L85.351 129.175L85.4082 129.583L86.5781 139.296L86.6226 139.34L96.5984 149.225L98.8301 151.44Z" fill="white"/>
<path d="M99.4215 152.218C99.3389 152.218 99.2626 152.186 99.2053 152.129C90.2659 143.744 86.3684 139.564 86.3302 139.526C86.2857 139.474 86.2539 139.411 86.2476 139.34L85.6499 133.195C85.402 130.942 84.9442 128.722 84.2766 126.558C83.9587 125.256 83.2974 124.07 82.3692 123.106C81.3328 122.13 80.023 121.887 78.6306 121.625C78.1156 121.53 77.5815 121.434 77.0602 121.294C76.8948 121.249 76.7931 121.083 76.8376 120.911V120.904C76.8821 120.732 77.0538 120.63 77.2255 120.675C77.7214 120.809 78.2428 120.904 78.7514 121C80.1693 121.262 81.6316 121.536 82.8079 122.646C83.8124 123.687 84.5245 124.969 84.8742 126.373C85.5546 128.581 86.025 130.847 86.2794 133.144L86.8707 139.181C87.4429 139.787 91.3849 143.929 99.6377 151.676C99.7649 151.797 99.7776 151.995 99.6568 152.129C99.5932 152.199 99.5105 152.231 99.4215 152.231V152.218Z" fill="#2E353A"/>
<path d="M79.2409 126.641C79.1137 126.641 78.9993 126.558 78.9484 126.443C78.2745 124.791 77.5878 123.042 76.8566 121.096C76.5959 120.426 76.3416 119.743 76.0936 119.066C75.0573 116.265 74.1862 113.438 73.3279 110.77C73.2452 110.521 73.1626 110.26 73.0863 110.005V109.915C73.0545 109.826 73.029 109.737 73.0036 109.641L72.673 108.62C72.673 108.569 72.6412 108.524 72.6285 108.473C72.5713 108.288 72.4759 108.116 72.3551 107.962L72.3233 107.924C72.1643 107.777 71.9291 107.752 71.7383 107.854C71.6112 107.899 71.484 107.956 71.3696 108.033C71.1852 108.141 71.0135 108.269 70.8546 108.416C70.4413 108.792 70.1043 109.252 69.8818 109.762L69.8182 109.902C69.1252 111.6 69.5067 113.668 69.8182 115.18C69.939 115.818 70.0662 116.456 70.206 117.145C70.206 117.158 70.206 117.165 70.206 117.177C70.8419 120.132 71.6493 122.991 72.3614 125.397C72.3932 125.569 72.2788 125.735 72.1071 125.767C71.9609 125.792 71.821 125.716 71.7574 125.582C71.039 123.163 70.2188 120.292 69.583 117.286C69.4367 116.648 69.3032 115.965 69.1824 115.301C68.8899 113.712 68.483 111.536 69.246 109.666L69.3159 109.507C69.583 108.913 69.9708 108.384 70.4477 107.943C70.6448 107.771 70.8546 107.618 71.0835 107.49C71.2424 107.394 71.4141 107.312 71.5921 107.254C71.7383 107.203 71.8909 107.171 72.0435 107.171C72.3487 107.171 72.6412 107.292 72.851 107.509L72.8892 107.56C73.0672 107.777 73.2007 108.026 73.2834 108.294L73.6585 109.468C73.6585 109.564 73.7094 109.647 73.7348 109.73V109.819C73.8111 110.075 73.8937 110.33 73.9764 110.579C74.8093 113.234 75.6994 116.054 76.7358 118.837C76.9838 119.519 77.2381 120.196 77.4924 120.866C78.2299 122.78 78.9103 124.548 79.5842 126.194C79.6478 126.36 79.5715 126.545 79.4062 126.609C79.3553 126.641 79.2981 126.648 79.2409 126.641Z" fill="#2E353A"/>
<path d="M67.542 127.803C67.4021 127.803 67.2813 127.707 67.2368 127.573C66.8108 126.163 66.5501 124.708 66.4611 123.234C66.334 121.753 66.6201 120.266 67.2813 118.939L67.3322 118.843C67.8472 118.09 68.6292 117.554 69.5194 117.35C69.6974 117.305 69.8754 117.407 69.9263 117.58C69.9708 117.758 69.8691 117.937 69.691 117.988C68.9535 118.148 68.305 118.588 67.8726 119.213L67.8281 119.29C67.2305 120.509 66.9761 121.874 67.0969 123.227C67.1859 124.65 67.4403 126.054 67.8536 127.42C67.8981 127.592 67.8027 127.764 67.631 127.816L67.542 127.803Z" fill="#2E353A"/>
<path d="M86.5781 166.124C86.4827 166.124 86.3937 166.079 86.3301 166.009L71.2932 147.298L71.2551 147.241C68.7373 143.246 66.4547 139.111 64.4138 134.848C63.9942 133.935 63.6636 133.144 63.4092 132.429C63.174 131.804 62.9769 131.166 62.8179 130.515C62.8179 130.483 62.8179 130.457 62.8179 130.425C62.8179 130.253 62.8179 130.081 62.8561 129.902C62.8942 129.723 62.8561 129.589 62.9197 129.43C63.1168 128.141 63.5491 126.903 64.1913 125.773C64.7635 124.695 65.5773 123.763 66.5692 123.048C66.7154 122.953 66.9125 122.997 67.0079 123.144C67.1033 123.284 67.0651 123.482 66.9253 123.578C66.9189 123.578 66.9189 123.584 66.9125 123.584C66.0097 124.248 65.2721 125.103 64.7444 126.092C64.1341 127.158 63.7208 128.326 63.53 129.538C63.5046 129.685 63.4855 129.832 63.4728 129.979C63.4537 130.125 63.441 130.266 63.4347 130.413C63.5809 131.025 63.7716 131.625 63.9942 132.212C64.2421 132.908 64.5664 133.686 64.9797 134.58C67.0015 138.798 69.265 142.895 71.751 146.851C71.7701 146.871 71.7828 146.896 71.7955 146.922L86.8133 165.607C86.9214 165.741 86.9023 165.945 86.7688 166.053C86.7179 166.098 86.648 166.124 86.5781 166.124Z" fill="#2E353A"/>
<path d="M101.876 150.049C101.055 152.352 99.9682 154.548 98.633 156.596C93.8263 164.209 86.6989 172.295 86.6989 172.295C82.1528 168.127 75.852 158.472 75.852 158.472C78.9738 156.558 83.9713 150.987 86.7815 147.419C89.4774 143.993 91.4293 141.076 91.4293 141.076L101.876 150.049Z" fill="white"/>
<path d="M86.6863 172.614C86.6036 172.614 86.5273 172.582 86.4701 172.531C81.9495 168.383 75.6613 158.747 75.5723 158.644C75.5215 158.574 75.5088 158.485 75.5278 158.402C75.5469 158.319 75.5978 158.242 75.6677 158.198C78.8467 156.245 83.8887 150.54 86.521 147.222C89.1532 143.903 91.1306 140.929 91.1496 140.904C91.2005 140.827 91.2832 140.776 91.3722 140.763C91.4612 140.751 91.5502 140.776 91.6201 140.834L102.073 149.806C102.168 149.895 102.206 150.029 102.168 150.157C101.335 152.48 100.235 154.694 98.8874 156.756C94.1252 164.305 86.9915 172.416 86.9215 172.492C86.8643 172.556 86.7816 172.594 86.699 172.601L86.6863 172.614ZM76.2781 158.574C77.3144 160.131 82.6362 168.044 86.6608 171.841C87.8879 170.431 94.0807 163.201 98.3533 156.43C99.6313 154.465 100.687 152.359 101.494 150.157L91.4803 141.561C90.908 142.391 89.2041 144.854 87.0296 147.624C84.4355 150.897 79.5207 156.424 76.2781 158.568V158.574Z" fill="#2E353A"/>
<path d="M28.4716 108.55C28.4017 107.592 28.3826 106.457 28.7005 106.067C29.0438 105.697 29.4571 105.404 29.9149 105.199C34.2702 102.921 38.6318 100.643 43.1333 98.652C43.5275 98.4797 44.0235 98.3137 44.3732 98.5754C44.6402 98.8434 44.7483 99.2327 44.6529 99.6028C44.4368 100.758 43.8772 101.824 43.0571 102.666C41.9444 103.929 40.6156 104.989 39.1405 105.799C38.6382 106.048 38.1486 106.329 37.6781 106.642C37.0805 107.12 36.5273 107.65 36.025 108.224C35.6245 108.633 35.1985 109.009 34.7534 109.367" fill="white"/>
<path d="M34.7599 109.686C34.6645 109.686 34.5691 109.641 34.5119 109.564C34.4038 109.43 34.4229 109.233 34.5564 109.124L34.5628 109.118C34.9951 108.773 35.4084 108.397 35.7962 108.001C35.9297 107.867 36.0569 107.733 36.1777 107.599C36.5783 107.152 37.017 106.744 37.4938 106.38C37.8562 106.131 38.2377 105.908 38.6319 105.71L38.988 105.518C40.4313 104.727 41.722 103.687 42.8028 102.449C43.5912 101.664 44.1189 100.656 44.3288 99.5645C44.3288 99.3986 44.3733 98.9902 44.1635 98.8307C43.9536 98.6711 43.5276 98.8307 43.2479 98.9455C38.7591 100.93 34.3466 103.247 30.0485 105.487C29.6289 105.665 29.2474 105.933 28.9359 106.265C28.8278 106.399 28.6625 106.903 28.7769 108.531C28.7896 108.709 28.6561 108.862 28.4844 108.875C28.3128 108.888 28.1538 108.754 28.1411 108.582C28.0394 107.095 28.1411 106.259 28.4399 105.869C28.8087 105.467 29.2601 105.148 29.756 104.925C34.0477 102.679 38.4793 100.362 42.9872 98.3712C43.4641 98.0713 44.0617 98.0521 44.5513 98.3265C44.9137 98.6584 45.0727 99.1689 44.9582 99.6475C44.742 100.873 44.1507 102.002 43.2797 102.883C42.1416 104.172 40.7873 105.25 39.2804 106.074L38.918 106.265C38.0343 106.68 37.2586 107.286 36.6291 108.033C36.502 108.173 36.3684 108.307 36.2413 108.441C35.8407 108.856 35.4147 109.245 34.9697 109.609C34.9124 109.654 34.8362 109.686 34.7599 109.686Z" fill="#2E353A"/>
<path d="M32.2548 108.594C32.5663 108.441 32.8906 108.307 33.2212 108.205C36.4002 107.242 39.8654 107.471 43.0762 106.565C44.6975 106.106 46.2552 105.353 47.9719 105.365C48.4806 105.365 49.1736 105.576 49.1164 106.214C49.0592 106.852 48.6205 107.108 48.2835 107.49C47.9147 107.944 47.5141 108.365 47.0882 108.767C46.198 109.552 45.1871 110.177 44.0935 110.617C42.4849 111.173 40.8255 111.568 39.1342 111.798C37.5065 112.111 35.9552 112.615 34.3593 113.074C33.9651 113.189 33.5645 113.291 33.1576 113.374" fill="white"/>
<path d="M33.1574 113.706C33.0048 113.706 32.8777 113.597 32.8459 113.451C32.8077 113.278 32.9222 113.112 33.0938 113.074C33.4499 113.004 33.825 112.908 34.2701 112.781L35.2365 112.5C36.4891 112.104 37.7607 111.766 39.0514 111.498L40.1386 111.3C41.442 111.121 42.72 110.796 43.9534 110.336C45.0152 109.909 45.9944 109.303 46.8591 108.543C47.1643 108.262 47.4504 107.956 47.7111 107.637L48.029 107.273C48.0925 107.197 48.1688 107.12 48.2388 107.05C48.5122 106.827 48.7029 106.527 48.7792 106.182C48.7919 106.086 48.7601 105.997 48.7029 105.92C48.4867 105.748 48.2197 105.665 47.9463 105.684C46.7637 105.742 45.6065 105.997 44.5066 106.437C44.0552 106.591 43.5974 106.744 43.1396 106.871C41.5437 107.273 39.9224 107.541 38.282 107.669C36.5971 107.79 34.9313 108.077 33.2973 108.511C32.9794 108.607 32.6742 108.728 32.3754 108.882C32.2164 108.958 32.0257 108.901 31.9494 108.741C31.8731 108.582 31.9367 108.39 32.0893 108.307C32.4199 108.148 32.7632 108.007 33.1129 107.899C34.7787 107.452 36.4827 107.159 38.1994 107.031C39.8016 106.91 41.3975 106.648 42.9552 106.259C43.4066 106.131 43.8454 105.984 44.2904 105.831C45.4539 105.372 46.6874 105.104 47.94 105.046C48.3914 105.027 48.8301 105.187 49.1607 105.493C49.3451 105.697 49.4277 105.965 49.396 106.24C49.3197 106.737 49.0653 107.19 48.6838 107.516L48.4867 107.72L48.1816 108.077C47.9018 108.422 47.5966 108.741 47.2724 109.047C46.3568 109.851 45.3141 110.502 44.1823 110.962C42.9044 111.434 41.5819 111.766 40.234 111.957L39.1594 112.155C37.8878 112.404 36.6162 112.793 35.3827 113.144L34.4163 113.425C33.9585 113.559 33.558 113.655 33.1892 113.731L33.1574 113.706Z" fill="#2E353A"/>
<path d="M31.6443 113.081C32.2929 112.557 33.0495 112.181 33.857 111.989C35.3893 111.772 36.947 111.772 38.4793 111.989C41.1687 112.206 43.8773 112.181 46.5668 111.919C46.9991 111.836 47.4442 111.836 47.8765 111.919C50.3752 112.628 47.0055 115.065 46.0645 115.474C42.3577 117.088 37.9706 117.165 33.9841 117.069" fill="white"/>
<path d="M35.9741 117.465C35.3382 117.465 34.6452 117.465 33.9903 117.465C33.8123 117.458 33.6724 117.318 33.6788 117.139C33.6851 116.967 33.8314 116.827 34.003 116.827C38.0913 116.929 42.3703 116.827 45.9372 115.257C46.6938 114.931 48.4804 113.553 48.4804 112.813C48.4804 112.596 48.2451 112.423 47.8128 112.302C47.4249 112.232 47.0307 112.232 46.6429 112.302C43.928 112.57 41.194 112.596 38.4728 112.379L37.837 112.328C36.5336 112.143 35.2111 112.143 33.9077 112.328C33.1511 112.513 32.439 112.864 31.8286 113.355C31.6887 113.463 31.4916 113.438 31.3835 113.298C31.2754 113.157 31.3009 112.959 31.4344 112.851C32.1211 112.296 32.9222 111.906 33.7805 111.702C35.1411 111.498 36.5272 111.485 37.8942 111.664L38.4918 111.715C41.1686 111.926 43.8517 111.906 46.5221 111.645C46.999 111.568 47.4822 111.581 47.9527 111.689C48.8492 111.945 49.0653 112.417 49.0844 112.768C49.1734 114.044 46.7065 115.614 46.1724 115.844C43.0887 117.19 39.5155 117.465 35.9741 117.465Z" fill="#2E353A"/>
<path d="M36.2919 117.324C36.2919 117.324 41.5818 124.344 37.7289 131.038L36.2919 117.324Z" fill="white"/>
<path d="M37.7289 131.357C37.6717 131.357 37.6208 131.344 37.57 131.319C37.4174 131.23 37.3665 131.032 37.4492 130.879C41.1559 124.427 36.0885 117.586 36.0377 117.522C35.9296 117.382 35.955 117.177 36.1013 117.069C36.2475 116.96 36.4446 116.986 36.5527 117.133C36.6036 117.203 41.9253 124.369 38.0087 131.172C37.9515 131.281 37.8497 131.351 37.7289 131.357Z" fill="#2E353A"/>
<path d="M56.2375 147.088C56.2375 147.088 54.1457 150.502 47.5142 153.157C43.426 154.714 39.1279 155.664 34.7599 155.964L32.8143 142.244C32.8143 142.244 37.0742 143.016 43.2734 140.374C45.6004 139.372 47.8003 138.103 49.8349 136.59L56.2375 147.088Z" fill="white"/>
<path d="M34.7596 156.283C34.6007 156.283 34.4672 156.169 34.4481 156.009L32.5025 142.289C32.4834 142.187 32.5216 142.085 32.5915 142.014C32.6678 141.944 32.7696 141.919 32.8713 141.931C32.9094 141.931 37.1185 142.646 43.1523 140.081C45.4539 139.085 47.6284 137.828 49.6439 136.335C49.7202 136.284 49.8092 136.258 49.8982 136.277C49.9872 136.296 50.0572 136.348 50.108 136.424L56.5043 146.922C56.5678 147.024 56.5678 147.158 56.5043 147.26C56.4153 147.4 54.2853 150.789 47.6347 153.45C43.5147 155.02 39.1849 155.971 34.7851 156.283H34.7596ZM33.2083 142.614L35.0521 155.62C39.2866 155.301 43.4511 154.369 47.4186 152.863C53.0518 150.604 55.3725 147.758 55.8748 147.081L49.7393 137.056C47.7619 138.492 45.6256 139.704 43.3812 140.668C38.2311 142.869 34.429 142.716 33.2083 142.614Z" fill="#2E353A"/>
<path d="M153.745 75.6084C153.745 75.6084 155.296 76.3869 156.841 73.745C158.386 71.103 159.734 63.8664 156.333 63.2474C151.736 61.0011 150.184 64.2621 150.184 64.2621L147.393 54.1601C147.393 54.1601 146.624 44.8303 140.736 45.6089C134.849 46.3874 131.441 52.9157 131.441 52.9157L115.488 53.5539L115.024 62.571C115.024 62.571 112.392 60.7076 111.616 63.0368C110.84 65.3661 110.84 73.1451 117.338 75.6275C117.338 75.6275 119.882 87.21 127.677 93.5468L131.491 93.7702L130.646 102.838C132.439 106.597 135.688 109.462 139.63 110.764C146.141 112.787 152.155 100.069 152.155 100.069C152.155 100.069 152.308 84.3064 153.745 75.6084Z" fill="white"/>
<path d="M116.843 75.2572H116.766C113.797 74.5616 111.75 72.3153 111.044 68.9203C110.37 65.8125 110.974 62.4239 111.915 61.6901C112.239 61.4284 112.659 61.3263 113.066 61.4093C114.484 61.6518 115.876 63.7896 115.933 63.8789C116.029 64.0257 115.991 64.2235 115.844 64.3256C115.698 64.4214 115.501 64.3831 115.399 64.2299C115.043 63.6747 113.905 62.2006 112.958 62.0347C112.735 61.9964 112.5 62.0538 112.322 62.1942C111.686 62.6792 111.012 65.7232 111.686 68.7863C112.169 71.0071 113.473 73.8213 116.963 74.6382C117.135 74.6765 117.237 74.8488 117.199 75.0211C117.161 75.1806 117.008 75.2891 116.843 75.2572Z" fill="#2E353A"/>
<path d="M159.874 112.462C159.874 112.481 159.874 112.5 159.874 112.519C158.481 114.37 156.936 116.105 155.264 117.707C155.01 117.956 154.743 118.199 154.482 118.435C150.979 121.677 147.062 124.446 142.841 126.667L142.745 126.724L139.929 109.724C143.966 107.388 147.552 104.351 150.528 100.752L150.731 100.535C151.17 100.05 151.92 99.3604 152.149 99.003C152.925 97.7969 152.785 98.3138 152.785 98.3138L152.276 95.8952L152.009 94.6636L152.295 94.7976C159.893 100.33 160.046 111.479 159.874 112.462Z" fill="white"/>
<path d="M142.733 127.056C142.682 127.056 142.637 127.043 142.593 127.018C142.504 126.973 142.434 126.89 142.421 126.788L139.598 109.788C139.585 109.685 139.617 109.59 139.687 109.513C139.732 109.475 139.789 109.443 139.846 109.417C143.476 106.948 146.853 104.108 149.917 100.956L150.629 100.19C151.57 99.2262 152.454 98.2115 153.274 97.1394C153.376 96.9926 153.573 96.9607 153.719 97.0628C153.866 97.1649 153.897 97.3628 153.796 97.5095C152.956 98.6008 152.054 99.641 151.093 100.624L150.381 101.39C147.298 104.561 143.915 107.414 140.266 109.902L142.968 126.22C146.91 123.808 150.687 121.134 154.266 118.205C154.533 117.988 154.794 117.758 155.048 117.535C157.331 115.531 158.863 113.802 159.575 112.378C159.836 111.332 158.825 100.719 152.365 95.1484C152.232 95.0335 152.219 94.8293 152.333 94.7017C152.448 94.5677 152.651 94.5549 152.778 94.6634C159.569 100.496 160.472 111.377 160.185 112.532C160.185 112.532 160.185 112.608 160.185 112.615C159.403 114.153 157.833 115.952 155.493 118.007C155.239 118.237 154.966 118.466 154.698 118.69C150.998 121.708 147.101 124.471 143.019 126.947C142.981 126.973 142.942 126.992 142.904 127.011C142.853 127.043 142.796 127.062 142.733 127.056Z" fill="#2E353A"/>
<path d="M139.916 109.737L132.433 126.762C132.433 126.762 124.549 116.169 124.32 107.356C125.464 102.602 126.698 99.9537 131.587 97.0757L131.034 100.503C131.034 100.503 131.937 108.601 139.916 109.737Z" fill="white"/>
<path d="M132.433 127.056C132.331 127.056 132.229 127.005 132.172 126.916C132.102 126.814 124.879 116.137 124.008 107.363C124.002 107.331 124.002 107.305 124.008 107.273C125.623 98.518 131.046 97.063 131.275 97.0119C131.447 96.9736 131.619 97.0757 131.663 97.248C131.708 97.414 131.606 97.5863 131.441 97.6309H131.434C131.377 97.6309 126.189 99.0604 124.644 107.344C125.413 114.899 131.002 123.936 132.382 126.073L139.522 109.852C135.821 107.031 132.674 103.559 130.226 99.5964C130.131 99.4497 130.175 99.2518 130.328 99.1561C130.481 99.0668 130.671 99.1114 130.767 99.2582C133.202 103.221 136.368 106.686 140.094 109.469C140.221 109.558 140.272 109.724 140.208 109.864L132.725 126.858C132.68 126.967 132.579 127.037 132.464 127.05L132.433 127.056Z" fill="#2E353A"/>
<path d="M131.123 100.649H131.034C130.868 100.605 130.767 100.426 130.811 100.26C131.32 98.1478 131.453 95.959 131.199 93.802C131.174 93.6297 131.301 93.4702 131.472 93.4447C131.644 93.4191 131.803 93.5468 131.828 93.7191C132.102 95.959 131.962 98.2308 131.428 100.426C131.39 100.56 131.263 100.649 131.123 100.649Z" fill="#2E353A"/>
<path d="M152.448 98.9965C152.283 98.9965 152.143 98.8625 152.13 98.6965C151.424 83.9744 153.72 75.487 153.745 75.404C153.796 75.2381 153.967 75.136 154.139 75.1807C154.311 75.2317 154.406 75.404 154.355 75.5763C154.355 75.6593 152.066 84.0574 152.759 98.6646C152.772 98.8369 152.639 98.9837 152.467 98.9965H152.461H152.448Z" fill="#2E353A"/>
<path d="M128.471 77.3823C128.09 77.376 127.708 77.3185 127.333 77.2228C126.284 76.9739 125.025 76.5464 124.593 75.4105C124.326 74.4788 124.542 73.4769 125.159 72.7366C125.381 72.4239 125.629 72.1367 125.871 71.856C126.182 71.5241 126.469 71.1604 126.717 70.7775C127.727 69.131 127.441 67.0379 127.028 64.8618C126.996 64.6895 127.111 64.5236 127.282 64.4853C127.454 64.4534 127.619 64.5683 127.651 64.7406C128.071 66.9549 128.389 69.2714 127.257 71.1221C126.99 71.5369 126.685 71.9261 126.354 72.2899C126.112 72.5515 125.884 72.8323 125.674 73.1195C125.203 73.7002 125.025 74.466 125.191 75.1935C125.515 76.0486 126.583 76.3996 127.479 76.6102C128.045 76.8208 128.668 76.808 129.222 76.5719C129.368 76.4762 129.565 76.5272 129.66 76.674C129.756 76.8208 129.705 77.0186 129.559 77.1143C129.228 77.3058 128.853 77.3951 128.471 77.3823Z" fill="#2E353A"/>
<path d="M124.351 65.9785C124.409 67.1719 123.932 68.161 123.29 68.1865C122.647 68.2121 122.088 67.274 122.018 66.0806C121.948 64.8873 122.438 63.8982 123.08 63.8663C123.722 63.8344 124.301 64.7852 124.351 65.9785Z" fill="#2E353A"/>
<path d="M137.424 65.6658C137.481 66.8591 137.004 67.8483 136.362 67.8738C135.72 67.8993 135.16 66.9612 135.09 65.7679C135.02 64.5746 135.51 63.5854 136.152 63.5535C136.794 63.5216 137.373 64.4725 137.424 65.6658Z" fill="#2E353A"/>
<path d="M131.46 82.0919C130.284 82.1174 129.12 81.8749 128.052 81.3899C127.906 81.2942 127.868 81.09 127.969 80.9496C127.969 80.9496 127.969 80.9496 127.969 80.9432C128.065 80.7965 128.255 80.7582 128.402 80.8539C128.402 80.8539 128.408 80.8539 128.408 80.8603C129.87 81.4538 131.473 81.6069 133.018 81.3006C134.823 80.9241 136.387 79.8137 137.347 78.2375C137.449 78.0907 137.64 78.0524 137.793 78.1418C137.939 78.2439 137.977 78.4417 137.882 78.5885C136.826 80.3178 135.103 81.5303 133.126 81.926C132.579 82.0409 132.019 82.0983 131.46 82.0919Z" fill="#2E353A"/>
<path d="M131.689 59.2842C131.587 59.2842 131.498 59.2332 131.434 59.1566C131.326 59.0162 131.358 58.8184 131.498 58.7099C134.276 56.6614 136.177 56.5848 139.039 58.3972C139.185 58.4929 139.229 58.6844 139.14 58.8375C139.045 58.9843 138.848 59.029 138.702 58.9332C136.05 57.2549 134.454 57.3251 131.879 59.2204C131.829 59.2651 131.759 59.2842 131.689 59.2842Z" fill="#2E353A"/>
<path d="M119.99 60.4266C119.913 60.4266 119.837 60.4011 119.78 60.35C119.646 60.2416 119.627 60.0437 119.735 59.9097L119.742 59.9033C121.236 58.225 123.728 57.8932 125.604 59.1248C125.744 59.2269 125.782 59.4247 125.68 59.5715C125.579 59.7119 125.381 59.7438 125.242 59.6481C123.646 58.5888 121.516 58.8632 120.231 60.2862C120.181 60.3692 120.091 60.4202 119.99 60.4266Z" fill="#2E353A"/>
<path d="M129.584 93.9551C128.936 93.9615 128.281 93.9232 127.638 93.8402C127.588 93.8338 127.537 93.8147 127.492 93.7828C127.321 93.6424 123.201 90.4133 119.907 83.7064C114.299 72.3026 115.374 55.8191 115.386 55.6277C115.399 55.449 115.552 55.3214 115.73 55.3341C115.908 55.3469 116.035 55.5001 116.022 55.6787C116.022 55.8447 114.948 72.1558 120.473 83.4064C122.234 87.1332 124.733 90.4708 127.816 93.2021C130.042 93.4126 132.28 93.2467 134.448 92.7043C138.562 91.7024 142.459 88.467 145.015 85.9335C145.136 85.8123 145.333 85.8059 145.454 85.9271C145.454 85.9271 145.454 85.9271 145.46 85.9335C145.581 86.0484 145.587 86.2462 145.473 86.3674C145.467 86.3738 145.467 86.3738 145.46 86.3802C142.853 88.9711 138.854 92.2767 134.601 93.3233C132.96 93.7253 131.275 93.9423 129.584 93.9551Z" fill="#2E353A"/>
<path d="M145.238 86.5015C145.181 86.5015 145.13 86.4887 145.079 86.4632C144.926 86.3739 144.875 86.1824 144.958 86.0292C148.105 80.3688 148.773 76.7505 148.805 76.7186C148.836 76.5399 149.002 76.4251 149.18 76.457C149.358 76.4889 149.472 76.6548 149.44 76.8335C149.409 76.9803 148.722 80.5794 145.518 86.3356C145.467 86.4377 145.359 86.5015 145.238 86.5015Z" fill="#2E353A"/>
<path d="M153.694 75.8252C151.888 75.8252 151.272 74.734 151.24 74.6765C151.157 74.5234 151.214 74.3256 151.367 74.2426C151.52 74.1596 151.717 74.2171 151.799 74.3702C151.799 74.4213 152.543 75.6146 154.921 75.0084C156.396 74.6383 158.132 70.586 158.183 67.3952C158.183 66.17 157.973 64.0322 156.275 63.5663C152.333 62.4496 150.261 68.2695 150.242 68.3269C150.184 68.4929 150 68.5822 149.835 68.5248C149.669 68.4673 149.587 68.2823 149.644 68.1163C149.644 68.0525 151.933 61.6774 156.447 62.9473C158.024 63.394 158.876 64.983 158.844 67.4144C158.793 70.7009 157.058 75.1424 155.099 75.6338C154.641 75.7614 154.171 75.8252 153.694 75.8252Z" fill="#2E353A"/>
<path d="M150.833 66.9231C150.35 67.9505 148.468 67.0443 147.775 66.1445C147.069 65.2001 147.069 63.8982 147.775 62.9538C146.306 62.5262 144.653 61.8625 144.017 60.465C143.75 59.7566 143.655 58.9908 143.744 58.2378C143.877 56.1894 144.379 54.1473 144.17 52.1052C143.96 50.0631 142.701 47.9253 140.685 47.5488C140.685 47.5488 133.691 60.114 120.498 55.0407C120.498 55.0407 114.617 57.8613 111.94 53.0305C109.264 48.1997 112.875 43.0945 120.365 39.8718C120.365 39.8718 115.685 39.7378 115.819 37.3192C115.952 34.9006 127.308 34.2306 135.338 35.9982C135.338 35.9982 134.391 31.7673 144.29 32.9734C154.19 34.1795 157.394 36.981 158.609 43.9177C165.863 47.887 157.712 64.2492 157.712 64.2492C157.712 64.2492 153.878 60.3948 150.833 66.9231Z" fill="#2E353A"/>
<path d="M114.7 53.2603C113.199 55.9022 112.926 59.0674 113.956 61.9264L115.997 65.1171L115.679 54.2685L114.7 53.2603Z" fill="#2E353A"/>
<path d="M157.979 45.2068C157.948 45.2132 157.916 45.2132 157.884 45.2068C157.719 45.1494 157.623 44.9707 157.681 44.8048C160.376 36.5088 154.622 32.6799 154.374 32.4948C154.228 32.3927 154.19 32.1949 154.285 32.0481C154.381 31.9013 154.578 31.863 154.724 31.9588C154.788 31.997 161.133 36.2599 158.285 45.0026C158.24 45.1302 158.113 45.2132 157.979 45.2068Z" fill="#2E353A"/>
</svg>
